<svg xmlns="http://www.w3.org/2000/svg" width="400" height="201" fill="none" viewBox="0 0 400 201">
  <g clip-path="url(#a)">
    <path fill="#F0F0F0" d="M131.728 200.518c-12.07 0-24.121-.216-36.155-.649-17.195-.617-34.975-1.255-51.5-10.421-11.561-6.411-21.8-16.698-29.61-29.748a100.084 100.084 0 0 1-11.347-28.45 116.959 116.959 0 0 1 .426-55.367 98.334 98.334 0 0 1 6.594-18.071c12.052-24.957 34.033-41.71 60.308-45.962a3.04 3.04 0 0 1 .654-.014c.118.006.236.013.356.008l.155-.05a7.554 7.554 0 0 1 1.217-.312c40.523-6.032 83.361 6.174 123.881 35.299 31.33 22.522 72.851 34.65 126.936 37.076l.768.04c15.056.865 29.62 7.073 42.119 17.952 12.336 10.738 21.598 25.064 26.786 41.431a93.813 93.813 0 0 1 1.737 6.173 11.644 11.644 0 0 1-3.105 11.044v.004l-.134.139a15.12 15.12 0 0 1-1.014.919l-.411.338c-3.456 2.847-6.186 5.097-9.453 6.843a29.001 29.001 0 0 1-6.897 2.604 1012.524 1012.524 0 0 1-39.781 8.855 1046.294 1046.294 0 0 1-78.302 12.69 1015.114 1015.114 0 0 1-124.228 7.629ZM70.791 12.72c-.08 0-.162.005-.241.016-26.03 4.213-47.803 20.802-59.735 45.511A97.344 97.344 0 0 0 4.286 76.14a115.937 115.937 0 0 0-.42 54.876 99.144 99.144 0 0 0 11.237 28.178c7.733 12.922 17.867 23.105 29.307 29.448 16.377 9.084 34.074 9.72 51.187 10.334A1013.738 1013.738 0 0 0 255.873 192a1045.444 1045.444 0 0 0 78.251-12.681 1014.773 1014.773 0 0 0 39.754-8.849 28.348 28.348 0 0 0 6.731-2.54c3.201-1.712 5.905-3.939 9.328-6.76l.41-.337c.3-.248.595-.513.876-.788l.081-.084c2.813-2.836 3.907-6.577 3.001-10.264a92.362 92.362 0 0 0-1.719-6.108c-10.596-33.434-38.009-57.062-68.212-58.797l-.764-.04c-24.705-1.109-46.324-4.18-66.089-9.389-23.595-6.218-44.194-15.58-61.225-27.822C155.93 18.525 113.271 6.365 72.925 12.37a6.93 6.93 0 0 0-1.109.287l-.279.078a4.182 4.182 0 0 1-.475-.006c-.093-.004-.183-.01-.271-.01Z"/>
    <path fill="#2F2E41" d="M124.944 65.331c-1.118-1.072-2.261-7.05-3.687-7.657 1.066 2.357.292 2.98.286 5.567a17.491 17.491 0 0 1-.51 4.359H96.868V48.74a12.901 12.901 0 0 1 12.903-12.903c.647.013 1.29.107 1.913.28a12.267 12.267 0 0 1 8.655 8.68c1.843 6.733 4.773 17.942 4.605 20.534Z"/>
    <path fill="#FFB6B6" d="m98.286 88.531.012-14.7-8.641.773 3.05 9.27-1.428 23.304a3.656 3.656 0 1 0 4.424 3.081l2.583-21.728Zm17.004 105.044 3.491-.001 1.661-13.464h-5.152v13.465Z"/>
    <path fill="#2F2E41" d="m114.108 191.853 5.518-.33v2.365l5.247 3.623a1.48 1.48 0 0 1 .036 2.405 1.48 1.48 0 0 1-.875.287h-6.57l-1.133-2.339-.442 2.339h-2.477l.696-8.35Z"/>
    <path fill="#FFB6B6" d="m95.105 193.575 3.492-.001 1.66-13.464h-5.152v13.465Z"/>
    <path fill="#2F2E41" d="m93.923 191.853 5.519-.33v2.365l5.246 3.623a1.473 1.473 0 0 1 .571 1.655 1.481 1.481 0 0 1-1.41 1.037h-6.57l-1.132-2.339-.442 2.339h-2.477l.695-8.35Z"/>
    <path fill="#E6E6E6" d="m112.182 57.958-7.232.141-5.105 5.389-4.092.6a8.17 8.17 0 0 0-6.968 7.558l.71 3.894h4.253l2.461 14.45c-.957 2.438-1.022 4.363.942 5.119l6.098 11.485 18.008-8.082c.913-1.57 1.206-3.147.272-4.681l1.288-22.12h4.328c0-4.136-1.399-7.624-5.51-8.084a48.618 48.618 0 0 0-4.916-.281l-4.537-5.388Z"/>
    <path fill="#2F2E41" d="M121.257 98.512s-17.583 3.119-24.106-3.403c0 0-.662 1.124-1.66 2.988-.287.537-.841.9-1.176 1.55-.304.589-1.086 1.315-1.418 1.985-.266.538.161 1.242-.116 1.824-3.34 7.006-7.243 16.889-6.407 23.415.54 4.209 1.654 14.002 2.828 24.52.092.822-.65 1.877-.559 2.706.087.781 1.009 1.334 1.096 2.117.058.52-.586 1.05-.529 1.569.064.57.828 1.128.89 1.696 1.609 14.523 3.08 28.082 3.08 28.082h8.225l1.552-30.968-1.268-11.288 2.977-22.829 4.113 21.695.529 12.21 4.345 31.747h7.604v-30.733l.567-1.597-.567-2.048.567-2.206-.567-2.403v-50.63Z"/>
    <path fill="#FFB6B6" d="M114.402 53.764a8.2 8.2 0 0 1-13.855-1.212 8.197 8.197 0 1 1 13.855 1.212Z"/>
    <path fill="#2F2E41" d="M112.692 49.087a4.312 4.312 0 0 0-1.259-2.283 5.872 5.872 0 0 1-.34 2.464 11.36 11.36 0 0 1-6.242-1.236c-1.447-.981-3.287-.896-5.431 0a7.942 7.942 0 0 1 7.941-7.94h1.418a7.942 7.942 0 0 1 7.94 7.94 23.62 23.62 0 0 1-4.027 1.055Z"/>
    <path fill="#F0F0F0" d="M50.657 150.294c12.599 0 22.812-10.214 22.812-22.813 0-12.599-10.213-22.812-22.812-22.812-12.6 0-22.813 10.213-22.813 22.812 0 12.599 10.214 22.813 22.813 22.813ZM196.03 45.625c12.599 0 22.813-10.214 22.813-22.813C218.843 10.213 208.629 0 196.03 0c-12.599 0-22.812 10.213-22.812 22.812 0 12.6 10.213 22.813 22.812 22.813Zm181.157 108.247c12.599 0 22.813-10.213 22.813-22.812 0-12.599-10.214-22.813-22.813-22.813-12.599 0-22.812 10.214-22.812 22.813 0 12.599 10.213 22.812 22.812 22.812Z"/>
    <path fill="#2EB7EB" d="M237.182 25.3v51.73a4.079 4.079 0 0 1-4.081 4.08h-6.021a18.162 18.162 0 0 1-18.163-18.162V25.3a4.082 4.082 0 0 1 4.081-4.08h2.439c-1.13 3.296 14.209 4.684 15.051 0h2.613a4.084 4.084 0 0 1 4.081 4.08Z"/>
    <path fill="#3F3D56" d="M219.315 17.351a.537.537 0 0 1 .535-.535h3.637a.534.534 0 0 1 .377.913c-.1.1-.235.157-.377.157h-3.637a.536.536 0 0 1-.535-.535Z"/>
    <path fill="#3F3D56" d="M234.35 87.671h-22.998a6.738 6.738 0 0 1-6.73-6.73v-36.16a.974.974 0 0 1-.408-.796v-3.637a.974.974 0 0 1 .408-.795v-.976a.974.974 0 0 1-.408-.796v-3.637a.974.974 0 0 1 .408-.795v-1.764a.972.972 0 0 1-.515-.863v-3.637a.973.973 0 0 1 .515-.863v-4.834a6.736 6.736 0 0 1 6.73-6.73h22.998a6.738 6.738 0 0 1 6.73 6.73v10.536a.836.836 0 0 1 .397.715v6.935a.847.847 0 0 1-.397.715V80.94a6.736 6.736 0 0 1-6.73 6.73Zm-22.998-72.119a5.844 5.844 0 0 0-5.836 5.836v5.595l-.43.016a.084.084 0 0 0-.059.026.084.084 0 0 0-.025.06v3.637c0 .022.009.043.025.06a.084.084 0 0 0 .059.026l.43.016v3.153l-.34.084a.087.087 0 0 0-.067.083v3.637a.087.087 0 0 0 .067.083l.34.085v2.232l-.34.084a.087.087 0 0 0-.067.083v3.637a.087.087 0 0 0 .067.084l.34.084V80.94a5.843 5.843 0 0 0 5.836 5.836h22.998a5.844 5.844 0 0 0 5.836-5.836V39.523h.396V32.69h-.396V21.389a5.843 5.843 0 0 0-5.836-5.836h-22.998Z"/>
    <path fill="#3F3D56" d="M225.519 17.886a.535.535 0 1 0 0-1.07.535.535 0 0 0 0 1.07Z"/>
    <path fill="#fff" d="M109.178 120.952H49.335a3.215 3.215 0 0 1-3.208-3.207V88.586a3.216 3.216 0 0 1 3.207-3.207h59.843a3.217 3.217 0 0 1 3.208 3.207v29.159a3.218 3.218 0 0 1-3.207 3.207Z"/>
    <path fill="#3F3D56" d="M109.178 120.952H49.335a3.215 3.215 0 0 1-3.208-3.207V88.586a3.216 3.216 0 0 1 3.207-3.207h59.843a3.217 3.217 0 0 1 3.208 3.207v29.159a3.218 3.218 0 0 1-3.207 3.207ZM49.335 86.274a2.32 2.32 0 0 0-2.313 2.313v29.158a2.318 2.318 0 0 0 2.313 2.312h59.842a2.32 2.32 0 0 0 2.313-2.313V88.586a2.321 2.321 0 0 0-2.313-2.313H49.335Z"/>
    <path fill="#2EB7EB" d="M82.463 116.643c-11.802 0-24.109-.113-28.7-.186a2.318 2.318 0 0 1-2.268-2.306V90.013a.819.819 0 0 1 .815-.817h53.89a.817.817 0 0 1 .818.815v16.377a10.22 10.22 0 0 1-10.045 10.177c-4.28.056-9.347.078-14.509.078Z"/>
    <path fill="#3F3D56" d="M103.001 104.883H54.307a1.983 1.983 0 0 1-1.862-1.313l-5.511-15.461a1.978 1.978 0 0 1 1.86-2.642l60.865-.085a1.976 1.976 0 0 1 1.913 1.468c.075.28.087.572.037.857l.047.02-.175.407-.002.005-6.662 15.546a1.971 1.971 0 0 1-1.816 1.198Zm6.661-18.607-60.867.085a1.083 1.083 0 0 0-1.019 1.447l5.511 15.461a1.086 1.086 0 0 0 1.021.72h48.693a1.08 1.08 0 0 0 .993-.656l6.663-15.547.328.14-.328-.14a1.077 1.077 0 0 0-.091-1.023 1.086 1.086 0 0 0-.904-.487Z"/>
    <path fill="#fff" d="M79.165 108.249a3.813 3.813 0 1 0 0-7.626 3.813 3.813 0 0 0 0 7.626Zm144.032-33.1a3.813 3.813 0 1 0-.001-7.625 3.813 3.813 0 0 0 .001 7.625Z"/>
    <path fill="#3F3D56" d="m367.405 126.64-10.185-10.055a5.332 5.332 0 0 0-1.731-1.15 5.341 5.341 0 0 0-2.04-.398h-.036a5.315 5.315 0 0 0-2.051.418 5.31 5.31 0 0 0-1.733 1.175 12.522 12.522 0 0 0-.219 17.373c.107.116.219.228.331.34a12.16 12.16 0 0 0 2.04 1.633 12.374 12.374 0 0 0 6.758 1.981h.076a12.458 12.458 0 0 0 8.835-3.721 5.377 5.377 0 0 0-.045-7.596Zm-.59 6.965a11.67 11.67 0 0 1-14.654 1.557 12.046 12.046 0 0 1-1.794-1.454 11.633 11.633 0 0 1-.103-16.448 4.448 4.448 0 0 1 3.158-1.328h.027a4.432 4.432 0 0 1 3.14 1.288l10.185 10.06a4.479 4.479 0 0 1 .041 6.325Zm-32.828-39.967-10.185-10.06a5.333 5.333 0 0 0-3.771-1.547H320a5.34 5.34 0 0 0-3.789 1.597 12.563 12.563 0 0 0-2.111 14.76l.005.005a12.289 12.289 0 0 0 1.937 2.653c.084.098.183.196.281.295a12.455 12.455 0 0 0 8.799 3.614h.08a12.47 12.47 0 0 0 8.835-3.726 5.382 5.382 0 0 0 1.547-3.806 5.356 5.356 0 0 0-1.597-3.785Zm-.59 6.965a11.563 11.563 0 0 1-8.199 3.457h-.076a11.63 11.63 0 0 1-8.271-19.802 4.476 4.476 0 0 1 6.325-.04l10.185 10.055a4.481 4.481 0 0 1 .036 6.33Z"/>
    <path fill="#2EB7EB" d="m368.056 129.802-11.229-11.09a3.903 3.903 0 0 0-5.514.034 9.84 9.84 0 0 0 7.061 16.763 9.835 9.835 0 0 0 6.942-2.933l2.74-2.774ZM334.64 96.798l-11.229-11.09a3.902 3.902 0 0 0-5.514.034 9.844 9.844 0 0 0-2.075 10.742 9.844 9.844 0 0 0 12.899 5.246 9.86 9.86 0 0 0 3.179-2.158l2.74-2.774Z"/>
    <path fill="#3F3D56" d="m355.717 136.709-.269.707a165.189 165.189 0 0 1-3.667-1.441c-20.97-8.556-30.981-18.572-37.677-37.582l-.004-.004a92.168 92.168 0 0 1-.926-2.747l.707-.228c.236.9.581 1.769 1.028 2.585a92.132 92.132 0 0 0 1.132 3.047c6.294 16.044 15.575 25.214 33.369 32.957.894.389 1.811.775 2.751 1.158a11.648 11.648 0 0 0 3.556 1.548Z"/>
    <path fill="#3F3D56" d="m323.615 104.141-.629.637 23.232 22.945.629-.636-23.232-22.946Z"/>
    <path fill="#FFB6B6" d="m126.929 85.128.012-14.7-8.641.773 3.05 9.27-11.07 16.781a3.657 3.657 0 0 0-1.289 6.567 3.656 3.656 0 0 0 5.713-3.486l12.225-15.205Z"/>
  </g>
  <defs>
    <clipPath id="a">
      <path fill="#fff" d="M0 0h400v200.518H0z"/>
    </clipPath>
  </defs>
</svg>
