<svg xmlns="http://www.w3.org/2000/svg" width="429" height="500" fill="none" viewBox="0 0 429 500">
  <g clip-path="url(#a)">
    <path fill="#F2F2F2" d="M414.818 184.284H13.485A13.501 13.501 0 0 1-.003 170.796V13.486A13.504 13.504 0 0 1 13.485-.002h401.333a13.502 13.502 0 0 1 13.487 13.488v157.31a13.5 13.5 0 0 1-13.487 13.488Z"/>
    <path fill="#fff" d="M321.221 175.684H77.193a68.665 68.665 0 0 1-68.589-68.589V77.199a68.667 68.667 0 0 1 68.59-68.59h273.924a68.669 68.669 0 0 1 68.589 68.59 98.6 98.6 0 0 1-98.486 98.485Z"/>
    <path fill="#E6E6E6" d="M258.272 53.642H96.966a3.479 3.479 0 0 1 0-6.957h161.306a3.477 3.477 0 0 1 0 6.957Zm81.655 37.114H96.967a3.479 3.479 0 0 1 0-6.957h242.96a3.48 3.48 0 0 1 0 6.957Zm0 37.114H96.967a3.476 3.476 0 0 1-3.48-3.479 3.477 3.477 0 0 1 3.48-3.478h242.96a3.477 3.477 0 0 1 2.46 5.938 3.477 3.477 0 0 1-2.46 1.019Z"/>
    <path fill="#E6E6E6" d="M339.927 127.87H96.967a3.476 3.476 0 0 1-3.48-3.479 3.477 3.477 0 0 1 3.48-3.478h242.96a3.477 3.477 0 0 1 2.46 5.938 3.477 3.477 0 0 1-2.46 1.019Z"/>
    <path fill="#FFB6B6" d="M241.25 95.016a7.168 7.168 0 0 0 5.578 6.729 7.162 7.162 0 0 0 3.108.016l13.266 21.762 5.646-11.98-13.463-18.83a7.21 7.21 0 0 0-14.135 2.303Z"/>
    <path fill="#3F3D56" d="m340.802 157.386-45.717-24.797-14.42-13.529s-6.269-1.678-3.961-3.717c2.307-2.038-4.268-4.004-4.268-4.004l-7.741-7.263-11 7.783 3.183 4.935s-.219 8.17 4.256 6.598c4.476-1.572 3.357 5.204 3.357 5.204l26.713 41.407 49.598-12.617Z"/>
    <path fill="#2EB7EB" d="M205.851 134.023c24.662 0 44.654-19.992 44.654-44.654 0-24.662-19.992-44.654-44.654-44.654-24.662 0-44.654 19.992-44.654 44.654 0 24.662 19.992 44.654 44.654 44.654Z"/>
    <path fill="#FFB6B6" d="M340.943 482.639h-9.285l-4.418-35.813h13.703v35.813Z"/>
    <path fill="#2F2E41" d="M345.844 498.726h-6.658l-1.189-6.287-3.044 6.287h-17.66a3.971 3.971 0 0 1-2.255-7.237l14.102-9.739v-6.356l14.834.886 1.87 22.446Z"/>
    <path fill="#FFB6B6" d="M266.683 482.639h-9.285l-4.418-35.813h13.703v35.813Z"/>
    <path fill="#2F2E41" d="M271.584 498.726h-6.658l-1.189-6.287-3.044 6.287h-17.66a3.974 3.974 0 0 1-3.79-2.789 3.967 3.967 0 0 1 1.535-4.448l14.102-9.739v-6.356l14.834.886 1.87 22.446Z"/>
    <path fill="#FFB6B6" d="M331.091 211.79h-46.862v53.352h46.862V211.79Z"/>
    <path fill="#2F2E41" d="m285.31 238.106-7.931 9.372-13.698 28.839-34.517 82.125-7.299 17.369 5.895 30.703s.954 21.631.954 25.172c0 7.209 6.03 11.204 6.03 11.204l4.424 23.042 42.898-1.803s-1.497-25.398-10.482-31.804c-8.985-6.407-13.115-39.796-13.115-39.796l-4.882-14.814 47.584-56.406.307 19.717.149 9.544s-6.968 62.07 1.155 74.116c8.122 12.046.165 10.629.165 10.629l.387 24.849 50.828.36-11.213-71.54s-5.694-4.495-2.648-9.015c3.047-4.519-2.952-10.054-2.952-10.054l2.69-55.849s-2.979-9.647.526-10.901c3.504-1.254.46-9.549.46-9.549l.52-10.81-10.454-33.525-45.781-11.175Z"/>
    <path fill="#3F3D56" d="m331.812 211.79 5.047-15.14 3.605-5.047 1.442-14.419c0-38.933-8.684-32.449-8.684-32.449l-5.014-13.693-23.071-.721-14.78 14.059-12.257 4.326-4.799 24.938 8.765 26.611 2.163 14.419c-4.126 7.617-3.777 4.014-.361 9.733l40.735 11.175c14.419 5.047 14.419-7.93 11.528-11.175-2.892-3.244-4.319-12.617-4.319-12.617Z"/>
    <path fill="#FFB6B6" d="M313.692 125.481c11.812 0 21.387-9.576 21.387-21.388 0-11.812-9.575-21.387-21.387-21.387-11.812 0-21.388 9.575-21.388 21.387 0 11.812 9.576 21.388 21.388 21.388Z"/>
    <path fill="#2F2E41" d="M342.245 132.642a2.636 2.636 0 0 1 .195 2.275 2.629 2.629 0 0 1-1.659 1.568c-2.869.952-4.636 3.727-6.698 5.948-2.054 2.213-5.364 4.052-7.988 2.545-2.617-1.5-2.797-5.328-4.989-7.404-2.134-2.019-5.681-1.774-8.19-.238l-.075.046a2.644 2.644 0 0 1-4.046-2.691l2.635-14.024a47.134 47.134 0 0 1-9.87 14.924 10.853 10.853 0 0 1-4.282 3.014c-1.5.476-2.956-1.075-4.413-.793 3.62-3.165 15.79-23.454 13.612-37.015l-7.678.865a7.058 7.058 0 0 0-1.716-3.237 8.274 8.274 0 0 1-.44 3.482c-1.067.123-2.141.238-3.208.361-1.485.166-3.1.31-4.376-.469-2.127-1.297-2.192-4.369-1.586-6.791 1.773-7.044 7.152-12.934 13.734-16.02 6.583-3.079 8.529 3.778 15.465 1.586 13.698-4.326 24.196 3.071 27.894 16.799 3.108 11.513.851 23.734-2.321 35.269Z"/>
    <path fill="#F0F0F0" d="M401.456 499.191h-26.189l-.113-.204a28.647 28.647 0 0 1-.96-1.912c-2.698-5.775-3.838-12.381-4.844-18.208l-.757-4.393a2.712 2.712 0 0 1 4.269-2.653c3.98 2.896 7.962 5.789 11.945 8.68 1.508 1.097 3.23 2.367 4.88 3.739.159-.772.325-1.548.492-2.312a2.711 2.711 0 0 1 3.762-1.9 2.71 2.71 0 0 1 1.194 1.043l3.064 4.923c2.235 3.595 4.208 7.137 3.806 10.958a.589.589 0 0 1-.011.139 8.634 8.634 0 0 1-.444 1.84l-.094.26Z"/>
    <path fill="#CACACA" d="M427.741 499.758 178.88 500a.939.939 0 0 1 0-1.879l248.861-.243a.941.941 0 0 1 0 1.88Z"/>
    <path fill="#3F3D56" d="m201.792 149.47-27.374-23.116a4.628 4.628 0 0 1-.549-6.516l5.038-5.966a4.628 4.628 0 0 1 6.516-.549l27.373 23.117a4.626 4.626 0 0 1 .55 6.515l-5.039 5.966a4.626 4.626 0 0 1-6.515.549Z"/>
    <path fill="#fff" d="M175.854 120.319a2.497 2.497 0 0 0 .296 3.511l27.374 23.117a2.496 2.496 0 0 0 3.511-.296l5.038-5.966a2.49 2.49 0 0 0 .578-1.817 2.49 2.49 0 0 0-.874-1.694l-27.373-23.117a2.496 2.496 0 0 0-3.511.296l-5.039 5.966Z"/>
    <path fill="#2EB7EB" d="M191.925 129.305a1.057 1.057 0 0 1-.833.441l-4.301.098a1.053 1.053 0 0 1-.048-2.104l2.814-.065-2.771-7.311a1.052 1.052 0 0 1 1.968-.746l3.299 8.702a1.055 1.055 0 0 1-.112.961l-.016.024Z"/>
    <path fill="#FFB6B6" d="M192.476 131.143a7.168 7.168 0 0 1 6.083 6.277 7.17 7.17 0 0 1-.322 3.091l20.191 15.554-12.524 4.31-17.254-15.431a7.213 7.213 0 0 1-1.183-12.729 7.212 7.212 0 0 1 5.009-1.072Z"/>
    <path fill="#3F3D56" d="M297.596 138.833 245.9 170.618s-20.843-7.712-16.769-11.282c4.073-3.57-8.895-5.984-8.895-5.984l-14.325-9.638-8.313 9.661s1.515 15.692 4.092 12.975c2.577-2.717 6.429 4.706 6.429 4.706s1.139 8.288 8.475 6.202c7.336-2.086 27.022 19.776 27.022 19.776l63.622-23.729-9.642-34.472Z"/>
    <path fill="#fff" d="M204.281 107.282a3.861 3.861 0 0 1-3.088-1.545l-9.468-12.624a3.852 3.852 0 0 1-.734-2.862 3.871 3.871 0 0 1 1.506-2.543 3.86 3.86 0 0 1 5.404.773l6.195 8.258 15.909-23.864a3.86 3.86 0 1 1 6.424 4.283l-18.936 28.405a3.863 3.863 0 0 1-3.105 1.717l-.107.002Z"/>
  </g>
  <defs>
    <clipPath id="a">
      <path fill="#fff" d="M0 0h428.676v500H0z"/>
    </clipPath>
  </defs>
</svg>
