<svg xmlns="http://www.w3.org/2000/svg" width="109" height="50" fill="none" viewBox="0 0 109 50">
  <path fill="#2EB7EB" d="M89.278 19.576c-1.596-.172-3.862.038-4.186.069-.747.095-1.37.217-1.837.322-1.666.375-2.365.765-2.552.873-.26.15-.461.293-.597.396l-.165.112c-.128-.019.663-4.096 1.718-9.265a3.057 3.057 0 0 0-.323-.205 3.551 3.551 0 0 0-1.108-.38h-4.276a1.365 1.365 0 0 0-.268 0c-.921.09-1.41 1.098-1.485 1.258l-4.634 22.922a.51.51 0 0 0 0 .307c.134.408.838.69 1.753.703h3.632c.064.004.127.004.188 0 1.015-.063 1.654-1.138 1.834-1.464l1.443-7.557a2.54 2.54 0 0 1 .041-.26c.017-.077.844-2.352 3.56-3.132.855-.245 1.618-.262 2.491-.283.76-.018 1.14-.026 1.635.098.211.053 1.618.425 2.135 1.512.125.265.165.503.178.664l-1.705 9.553-.004.022c-.034.218.148.402.23.485.205.206.468.284.692.352.3.09.554.117.811.136.585.044.907.021 1.48.02 1.023-.003 1.09.054 1.645 0 .434-.042.707-.07 1.05-.196.293-.107.808-.35 1.169-.839.194-.262.258-.52.358-.878a5.9 5.9 0 0 0 .119-.576c.092-.52.145-.92.155-.995l.226-1.455.322-2.058c.325-2.006.486-3.009.644-3.825.025-.13.093-.478.143-.947.013-.124.08-.751.06-1.084-.05-.793-.692-1.384-1.372-2.01-.79-.728-1.561-1.109-2.731-1.688a6.788 6.788 0 0 0-1.121-.449 7.217 7.217 0 0 0-1.348-.258Z"/>
  <path stroke="#2EB7EB" stroke-miterlimit="10" stroke-width="3" d="m47.918 35.815 3.56-15.346c-.023-.108-.115-.442-.547-.73-.432-.287-.934-.348-1.096-.364h-5.02m3.104 16.44c-.206.395-.602.95-1.355 1.104-.294.06-.54.038-.638.03-.773-.062-2.434-.083-5.72-.013"/>
  <path stroke="#2EB7EB" stroke-miterlimit="10" stroke-width="3" d="M44.815 19.375c-.678.025-1.43.144-1.895.517-.364.291-.416.628-.433.729-.882 4.956-2.694 9.825-3.621 14.779-.035.185-.138.705.32 1.104.298.26.736.383 1.11.446"/>
  <path fill="#2EB7EB" d="M49.092 11.556c.256-.006 2.709-.043 3.676 1.128.196.238.271.453.32.594.427 1.256-.614 2.398-.76 2.553-1.249 1.327-4.409 2.3-6.432 1.127-1.3-.753-1.811-2.207-1.199-3.413.947-1.865 3.996-1.979 4.395-1.989Zm3.065 20.103c-.132.052-1.15.935-2.453 2.23-.01.007-.124.078-.125.204-.002.14.134.214.141.218 6.906 2.487 8.509 2.609 8.509 2.609.9.068 5.416.413 8.29-2.147.448-.4 2.373-2.116 1.97-4.213-.226-1.172-1.084-1.966-1.314-2.174-1.11-1.005-2.433-1.242-2.878-1.305l-5.13-1.25c-.12-.028-.313-.091-.438-.244-.255-.31-.053-.768.094-.978.358-.514 1.312-.898 2.233-1.006.526-.061 1.323.118 2.6.353a8.738 8.738 0 0 1 2.66.952.82.82 0 0 0 .25.135c.469.156.945-.153 1-.19l1.893-1.74a.776.776 0 0 0 .078-.258c.074-.63-.704-1.169-1.017-1.386-.818-.566-2.934-1.424-6.319-1.345-1.383.033-3.512.103-5.771 1.183-.858.41-1.797.87-2.565 1.834-.138.173-1.3 1.677-1.064 3.615.033.268.05.41.125.612.45 1.203 1.952 1.753 3.3 2.228.702.247 2.044.72 3.316.884.718.092 1.079.224 1.8.489.075.028.3.112.547.285.214.151.586.412.594.761.006.274-.215.48-.344.598-.441.4-1.032.516-1.596.585-.828.101-1.903.223-3.347-.068a12.018 12.018 0 0 1-2.174-.68c-1.081-.435-1.622-.653-1.736-.734-.056-.04-.183-.138-.375-.163a1.842 1.842 0 0 0-.392.012c-.004 0-.008 0-.015.002 0-.002-.173.022-.347.092Zm-19.172 5.129c1.013-.003 1.079.052 1.628 0 .428-.042.698-.068 1.038-.192.29-.105.8-.344 1.156-.822.192-.258.255-.51.354-.861.023-.082.053-.198.118-.565.091-.51.144-.901.154-.976a2385.095 2385.095 0 0 1 .542-3.444c.321-1.966.481-2.949.637-3.75.025-.127.093-.467.142-.927.013-.122.08-.736.059-1.062-.049-.777-.684-1.357-1.357-1.97-.783-.714-1.545-1.088-2.702-1.655a6.704 6.704 0 0 0-2.442-.693c-1.579-.17-3.82.036-4.141.067-.74.094-1.355.213-1.817.316-1.648.367-2.34.75-2.525.856a5.79 5.79 0 0 0-.59.387l-.163.11c-.127-.018.655-4.015 1.698-9.082a3.01 3.01 0 0 0-.318-.2 3.528 3.528 0 0 0-1.098-.374h-4.23a1.365 1.365 0 0 0-.265 0c-.911.09-1.394 1.077-1.468 1.234l-4.584 22.47a.5.5 0 0 0 0 .301c.132.4.83.676 1.735.69h3.592c.064.003.126.003.186 0l14.66.142Z"/>
  <path fill="#F5F5F5" d="M30.991 31.134a1.837 1.837 0 0 1-.072.066c-.454.386-1.087.435-1.414.494-.697.125-1.437.179-2.956.1-1.475-.076-2.213-.114-2.973-.344-.702-.213-1.553-.471-1.982-1.133-.133-.206-.34-.63-.159-1.521.295-1.458 1.522-3.67 3.925-4.319.892-.24 1.943-.265 2.464-.277.75-.018 1.125-.027 1.617.095.21.052 1.6.417 2.111 1.483.092.191.12.344.178.65l.01.06c.113.675-.075 1.906-.075 1.906-.193 1.253-.146 2.23-.674 2.74Z"/>
</svg>
