<svg xmlns="http://www.w3.org/2000/svg" width="240" height="240" fill="none" viewBox="0 0 240 240">
  <path fill="#2EB7EB" d="M106 160c0-13.5 1.21-23.21 3.63-29.13 2.413-5.913 7.537-12.37 15.37-19.37 6.833-6 12.04-11.21 15.62-15.63 3.587-4.413 5.38-9.453 5.38-15.12 0-6.833-2.29-12.5-6.87-17C134.543 59.25 128.167 57 120 57c-8.5 0-14.96 2.583-19.38 7.75-4.413 5.167-7.537 10.417-9.37 15.75l-25.75-11c3.5-10.667 9.917-19.917 19.25-27.75C94.083 33.917 105.833 30 120 30c17.5 0 30.96 4.877 40.38 14.63 9.413 9.747 14.12 21.453 14.12 35.12 0 8.333-1.79 15.46-5.37 21.38-3.587 5.913-9.213 12.62-16.88 20.12-8.167 7.833-13.123 13.79-14.87 17.87-1.753 4.087-2.63 11.047-2.63 20.88H106Zm14 60c-5.5 0-10.207-1.957-14.12-5.87-3.92-3.92-5.88-8.63-5.88-14.13s1.96-10.21 5.88-14.13c3.913-3.913 8.62-5.87 14.12-5.87s10.21 1.957 14.13 5.87c3.913 3.92 5.87 8.63 5.87 14.13s-1.957 10.21-5.87 14.13c-3.92 3.913-8.63 5.87-14.13 5.87Z"/>
</svg>
