<svg xmlns="http://www.w3.org/2000/svg" width="182" height="78" fill="none" viewBox="0 0 182 78">
  <path fill="#F5F5F5" d="M12.79 30.429c0-2.022 1.618-2.8 4.298-2.8 3.842 0 8.695 1.193 12.538 3.318V18.765c-4.197-1.71-8.342-2.384-12.538-2.384C6.825 16.38 0 21.876 0 31.05c0 14.307 19.211 12.026 19.211 18.195 0 2.385-2.022 3.162-4.853 3.162-4.196 0-9.555-1.762-13.802-4.147V60.6c4.702 2.073 9.454 2.954 13.802 2.954 10.515 0 17.745-5.339 17.745-14.618-.05-15.448-19.312-12.7-19.312-18.506ZM46.967 6.013 34.631 8.71l-.051 41.52c0 7.672 5.612 13.322 13.094 13.322 4.145 0 7.179-.777 8.847-1.71V51.32c-1.618.673-9.605 3.058-9.605-4.614V28.304h9.605V17.262h-9.605l.05-11.249Zm25.278 15.085-.809-3.836h-10.92V62.62h12.639V31.88c2.983-3.991 8.038-3.265 9.605-2.695V17.262c-1.617-.622-7.532-1.762-10.515 3.836Zm13.6-3.836h12.689V62.62h-12.69V17.262Zm0-3.94 12.689-2.799V0l-12.69 2.747v10.575Zm39.079 3.059c-4.955 0-8.14 2.384-9.909 4.043l-.657-3.214h-11.123v60.443l12.639-2.747.051-14.67c1.82 1.348 4.499 3.266 8.948 3.266 9.05 0 17.29-7.465 17.29-23.898-.05-15.033-8.392-23.223-17.239-23.223Zm-3.034 35.716c-2.982 0-4.752-1.088-5.965-2.436l-.051-19.232c1.315-1.503 3.135-2.54 6.016-2.54 4.601 0 7.786 5.287 7.786 12.078 0 6.946-3.134 12.13-7.786 12.13ZM182 40.123c0-13.27-6.269-23.742-18.251-23.742-12.032 0-19.312 10.471-19.312 23.638 0 15.603 8.595 23.483 20.93 23.483 6.016 0 10.566-1.4 14.004-3.37V49.765c-3.438 1.762-7.381 2.85-12.386 2.85-4.904 0-9.252-1.762-9.808-7.879h24.722c0-.674.101-3.37.101-4.613Zm-24.974-4.925c0-5.858 3.488-8.294 6.673-8.294 3.084 0 6.37 2.436 6.37 8.294h-13.043Z"/>
</svg>
