<svg xmlns="http://www.w3.org/2000/svg" width="742" height="400" fill="none" viewBox="0 0 742 400">
  <g clip-path="url(#a)">
    <path fill="#E4E4E4" d="m46.939 334.068-2.312 11.597c-.174.886-.356 1.789-.554 2.683a11.317 11.317 0 0 0-5.81.325 54.224 54.224 0 0 1 3.99 6.673c-1.457 4.489-3.594 8.637-7.172 11.637a17.986 17.986 0 0 1-17.377 3.056l.103-.46c-3.847-7.464-1.757-16.877 3.024-23.772a46.243 46.243 0 0 1 8.59-9.08c3.23-2.691 6.72-5.106 10.18-7.488a4.74 4.74 0 0 1 7.338 4.829Z"/>
    <path fill="#F2F2F2" d="M18.528 397.943c-.973-7.087-1.974-14.265-1.291-21.428.606-6.362 2.546-12.575 6.498-17.67a29.395 29.395 0 0 1 7.542-6.834c.754-.475 1.447.72.697 1.193a27.941 27.941 0 0 0-11.053 13.336c-2.407 6.121-2.793 12.794-2.375 19.295.25 3.932.782 7.837 1.318 11.74a.712.712 0 0 1-.483.85.694.694 0 0 1-.85-.483l-.003.001Z"/>
    <path fill="#E6E6E6" d="M26.877 42.457a3400.935 3400.935 0 0 1 260.477 5.434c1.526.09 1.521-2.284 0-2.374a3400.497 3400.497 0 0 0-260.477-5.434c-1.526.026-1.531 2.401 0 2.374Zm236.325-14.89 14.829-1.104c1.514-.113 1.527-2.489 0-2.375l-14.829 1.104c-1.514.112-1.527 2.488 0 2.375Zm0 14.249 14.829-1.104c1.514-.113 1.527-2.489 0-2.375l-14.829 1.104c-1.514.112-1.527 2.488 0 2.375Zm-1.115-6.508 21.082 1.916c1.522.138 1.512-2.238 0-2.375l-21.082-1.915c-1.521-.139-1.512 2.237 0 2.374ZM35.653 24.373a5.253 5.253 0 0 0-4.855 3.17 4.729 4.729 0 0 0 1.088 5.618 5.623 5.623 0 0 0 5.326 1.082 4.75 4.75 0 0 0 3.185-4.467 5.31 5.31 0 0 0-3.308-5.12 1.192 1.192 0 0 0-1.46.828 1.221 1.221 0 0 0 .83 1.461c.206.08-.19-.102.003.004.08.043.16.082.239.128.066.04.13.082.194.125.222.144-.108-.107.033.023.123.113.245.223.357.348.042.047.207.178.079.086-.098-.07-.038-.053 0 .003.029.043.059.084.087.127.093.14.177.285.252.435l.052.105c.033.065.081.082.003.001-.075-.077-.027-.072 0 .002l.053.147c.056.16.103.323.14.489.018.076.032.153.047.23.053.273-.008-.17.005.033.01.169.023.336.02.506a4.529 4.529 0 0 1-.01.233l-.01.116c-.012.186-.013-.068.014-.086a2.19 2.19 0 0 0-.108.489c-.021.074-.046.146-.07.219-.082.255.078-.14-.01.035-.073.15-.154.295-.243.435-.039.059-.184.192-.065.1.13-.1-.068.072-.11.116a3.24 3.24 0 0 1-.286.268c-.008-.004.198-.138.087-.067-.141.09-.275.186-.423.265-.018.009-.208.097-.207.1-.008-.032.244-.09.071-.033l-.108.038a3.883 3.883 0 0 1-.483.129c-.037.007-.077.01-.114.02-.122.032.118-.018.125-.014a1.036 1.036 0 0 0-.27.024c-.169.01-.338.01-.506 0l-.117-.009c-.09-.005-.157-.07-.036 0 .092.055.085.015.002 0l-.115-.02a4.603 4.603 0 0 1-.494-.121c-.087-.027-.173-.058-.26-.088a.692.692 0 0 1-.108-.042c-.001-.01.222.107.104.043-.148-.08-.302-.147-.447-.234-.077-.047-.151-.097-.226-.147a.73.73 0 0 1-.094-.068c.002-.01.184.159.089.068-.121-.115-.25-.218-.364-.34-.026-.028-.05-.058-.077-.086l-.025-.028c-.064-.08-.066-.079-.004 0 .063.02.06.088 0-.001-.02-.032-.043-.063-.065-.095a2.485 2.485 0 0 1-.245-.439c.006-.004.103.286.029.067l-.044-.124a3.274 3.274 0 0 1-.072-.25c-.02-.082-.031-.168-.052-.251-.035-.14.02.11.014.104-.02-.02-.011-.141-.012-.17-.01-.186.011-.367.015-.552.002-.144-.012.111-.015.104 0-.043.008-.086.022-.126.022-.098.042-.195.068-.292a4.3 4.3 0 0 1 .104-.328c.015-.04.033-.08.046-.12.05-.15-.099.18-.017.045.113-.185.198-.385.318-.568.028-.043.2-.284.11-.163-.092.122.093-.108.128-.147.146-.162.317-.296.468-.45.089-.093-.063.044-.072.05l.14-.1c.083-.057.167-.11.254-.161.097-.057.207-.1.302-.16.111-.072-.086.031-.09.033a.878.878 0 0 1 .16-.06c.092-.033.492-.205.575-.151-.003-.003-.303.024-.06.008.057-.004.114-.01.171-.011.116-.005.232-.002.348.004a1.195 1.195 0 0 0 1.187-1.188 1.214 1.214 0 0 0-1.187-1.187Zm16.624 0a5.253 5.253 0 0 0-4.855 3.17 4.729 4.729 0 0 0 1.088 5.618 5.622 5.622 0 0 0 5.326 1.082 4.752 4.752 0 0 0 3.185-4.467 5.31 5.31 0 0 0-3.308-5.12 1.192 1.192 0 0 0-1.46.828 1.221 1.221 0 0 0 .83 1.461c.206.08-.19-.102.003.004.08.043.16.082.239.128.066.04.13.082.194.125.222.144-.108-.107.034.023.122.113.244.223.356.348.042.047.207.178.079.086-.099-.07-.038-.053 0 .003.029.043.059.084.087.127.093.14.177.285.252.435l.052.105c.033.065.081.082.003.001-.075-.077-.027-.072 0 .002l.053.147c.056.16.103.323.14.489.018.076.032.153.047.23.053.273-.008-.17.005.033.01.169.023.336.02.506a4.529 4.529 0 0 1-.01.233l-.01.116c-.012.186-.012-.068.014-.086-.055.159-.09.322-.108.489-.02.074-.046.146-.07.219-.083.255.078-.14-.01.035-.073.15-.154.295-.243.435-.039.059-.184.192-.065.1.13-.1-.068.072-.11.116a3.24 3.24 0 0 1-.286.268c-.008-.004.198-.138.087-.067-.141.09-.275.186-.423.265-.018.009-.208.097-.207.1-.008-.032.244-.09.071-.033l-.108.038a3.881 3.881 0 0 1-.483.129c-.037.007-.077.01-.114.02-.122.032.118-.018.125-.014a1.036 1.036 0 0 0-.27.024c-.169.01-.338.01-.506 0l-.117-.009c-.09-.005-.157-.07-.036 0 .093.055.085.015.002 0l-.115-.02a4.603 4.603 0 0 1-.494-.121c-.087-.027-.173-.058-.26-.088a.69.69 0 0 1-.109-.042c0-.01.223.107.105.043-.148-.08-.302-.147-.447-.234-.077-.047-.151-.097-.226-.147a.724.724 0 0 1-.094-.068c.002-.01.184.159.089.068-.12-.115-.25-.218-.364-.34-.026-.028-.05-.058-.077-.086l-.025-.028c-.065-.08-.066-.079-.004 0 .063.02.06.088 0-.001-.02-.032-.043-.063-.065-.095a2.478 2.478 0 0 1-.245-.439c.006-.004.103.286.029.067l-.044-.124a3.321 3.321 0 0 1-.072-.25c-.02-.082-.03-.168-.052-.251-.034-.14.02.11.014.104-.02-.02-.01-.141-.012-.17-.01-.186.011-.367.015-.552.002-.144-.012.111-.015.104a.4.4 0 0 1 .022-.126c.022-.098.042-.195.068-.292a4.3 4.3 0 0 1 .104-.328c.015-.04.033-.08.046-.12.05-.15-.099.18-.017.045.114-.185.198-.385.318-.568.028-.043.2-.284.11-.163-.092.122.093-.108.128-.147.146-.162.317-.296.468-.45.089-.093-.063.044-.072.05l.14-.1c.083-.057.167-.11.254-.161.097-.057.207-.1.302-.16.111-.072-.086.031-.09.033a.878.878 0 0 1 .16-.06c.092-.033.492-.205.576-.151-.004-.003-.304.024-.062.008.058-.004.115-.01.172-.011.116-.005.232-.002.348.004a1.195 1.195 0 0 0 1.187-1.188 1.214 1.214 0 0 0-1.187-1.187Zm16.623 0a5.253 5.253 0 0 0-4.855 3.17 4.729 4.729 0 0 0 1.089 5.618 5.622 5.622 0 0 0 5.326 1.082 4.752 4.752 0 0 0 3.185-4.467 5.309 5.309 0 0 0-3.308-5.12 1.192 1.192 0 0 0-1.46.828 1.22 1.22 0 0 0 .83 1.461c.206.08-.19-.102.003.004.08.043.16.082.239.128.066.04.13.082.194.125.222.144-.108-.107.034.023.122.113.244.223.356.348.042.047.207.178.079.086-.099-.07-.038-.053 0 .003l.088.127c.092.14.176.285.251.435l.052.105c.033.065.081.082.003.001-.075-.077-.027-.072 0 .002l.053.147c.056.16.103.323.14.489.018.076.032.153.047.23.053.273-.008-.17.005.033.01.169.023.336.02.506a4.418 4.418 0 0 1-.01.233l-.01.116c-.012.186-.012-.068.014-.086-.055.159-.09.322-.108.489-.02.074-.046.146-.07.219-.083.255.078-.14-.01.035-.073.15-.154.295-.243.435-.039.059-.184.192-.065.1.13-.1-.068.072-.11.116a3.24 3.24 0 0 1-.286.268c-.008-.004.198-.138.087-.067-.141.09-.275.186-.423.265-.018.009-.208.097-.207.1-.008-.032.244-.09.071-.033l-.108.038a3.877 3.877 0 0 1-.483.129c-.037.007-.077.01-.114.02-.122.032.118-.018.125-.014a1.035 1.035 0 0 0-.27.024c-.169.01-.338.01-.506 0l-.117-.009c-.09-.005-.157-.07-.036 0 .093.055.085.015.002 0l-.115-.02a4.607 4.607 0 0 1-.494-.121c-.087-.027-.173-.058-.26-.088a.69.69 0 0 1-.109-.042c0-.01.223.107.105.043-.148-.08-.302-.147-.446-.234-.078-.047-.152-.097-.227-.147a.724.724 0 0 1-.094-.068c.002-.01.184.159.089.068-.12-.115-.25-.218-.364-.34-.026-.028-.05-.058-.077-.086l-.025-.028c-.064-.08-.066-.079-.004 0 .063.02.06.088 0-.001-.02-.032-.043-.063-.065-.095a2.485 2.485 0 0 1-.245-.439c.006-.004.103.286.029.067l-.044-.124a3.321 3.321 0 0 1-.072-.25c-.02-.082-.03-.168-.052-.251-.035-.14.02.11.014.104-.02-.02-.01-.141-.012-.17-.01-.186.011-.367.015-.552.002-.144-.012.111-.015.104a.4.4 0 0 1 .022-.126c.022-.098.042-.195.068-.292a4.3 4.3 0 0 1 .104-.328c.015-.04.033-.08.046-.12.05-.15-.099.18-.016.045.112-.185.197-.385.317-.568.028-.043.2-.284.11-.163-.092.122.093-.108.128-.147.146-.162.317-.296.468-.45.09-.093-.063.044-.072.05l.14-.1c.083-.057.167-.11.254-.161.097-.057.207-.1.302-.16.111-.072-.086.031-.09.033a.876.876 0 0 1 .16-.06c.092-.033.492-.205.576-.151-.004-.003-.304.024-.062.008.058-.004.115-.01.172-.011.116-.005.232-.002.348.004a1.195 1.195 0 0 0 1.187-1.188 1.214 1.214 0 0 0-1.187-1.187Z"/>
    <path fill="#E6E6E6" d="M309.056 287.356H17.816a13.905 13.905 0 0 1-13.89-13.89V13.891A13.906 13.906 0 0 1 17.815 0h291.24a13.906 13.906 0 0 1 13.89 13.89v259.576a13.908 13.908 0 0 1-13.89 13.89ZM17.816 1.583A12.321 12.321 0 0 0 5.51 13.891v259.575a12.32 12.32 0 0 0 12.307 12.307h291.24a12.318 12.318 0 0 0 12.307-12.307V13.891a12.324 12.324 0 0 0-12.307-12.308H17.816Z"/>
    <path fill="#E6E6E6" d="m17.334 176.614 102.418-.311 101.896-.31 57.48-.175a1.19 1.19 0 0 0 1.147-1.188 1.186 1.186 0 0 0-1.147-1.187l-102.419.311-101.896.31-57.48.175a1.192 1.192 0 0 0-1.146 1.188 1.186 1.186 0 0 0 1.146 1.187Z"/>
    <path fill="#E6E6E6" d="m69.002 174.689.633-37.394c.026-1.529-2.349-1.529-2.375 0l-.633 37.394c-.026 1.529 2.35 1.529 2.375 0Zm48.95.404 1.543-47.001.441-13.429c.05-1.529-2.325-1.527-2.375 0l-1.543 47.001-.441 13.429c-.05 1.529 2.325 1.527 2.375 0Zm48.817-82.711c-.931 16.648-2.653 65.752-3.584 82.4-.085 1.527 2.29 1.522 2.375 0 .931-16.648 2.653-65.752 3.584-82.4.086-1.526-2.289-1.522-2.375 0Zm48.583 65.695-.291 16.001c-.028 1.529 2.347 1.529 2.375 0 .344-18.898 1.225-18.282 1.322-23.616.028-1.529-2.347-1.529-2.374 0 0 0-.688-11.283-1.032 7.615Zm47.586-42.035.268 44.891.077 12.855a1.193 1.193 0 0 0 1.188 1.147 1.186 1.186 0 0 0 1.187-1.147l-.268-44.892-.077-12.854a1.19 1.19 0 0 0-2.375 0Z"/>
    <path fill="#E6E6E6" d="M17.524 175.278c-1.965-5.402 2.466-10.597 7.02-12.932 5.454-2.797 11.73-3.431 17.242-6.127 8.22-4.02 14.205-11.235 19.532-18.456 5.483-7.433 10.5-15.41 17.466-21.585a34.99 34.99 0 0 1 12.72-7.362c5.939-1.853 12.237-1.98 18.374-1.233 12.681 1.543 24.436 6.78 36.671 10.109 11.535 3.139 24.245 4.903 35.568.023 5.752-2.479 10.456-6.638 15.509-10.237a51.688 51.688 0 0 1 16.155-7.793c11.366-3.16 23.779-2.317 34.361 3.026a46.11 46.11 0 0 1 21.745 22.951c5.017 11.984 4.364 25.376 2.725 37.99-.424 3.26-.928 6.51-1.437 9.758-.235 1.495 2.053 2.139 2.29.631 2.04-13.007 4.075-26.426 1.536-39.514a47.865 47.865 0 0 0-17.678-28.797 49.118 49.118 0 0 0-32.386-10.22 53.103 53.103 0 0 0-17.791 3.956c-5.873 2.43-10.847 6.031-15.898 9.819-5.194 3.896-10.549 7.118-16.997 8.389-6.255 1.232-12.762.77-18.99-.394-12.85-2.4-24.827-7.904-37.568-10.724-11.804-2.612-24.542-2.873-35.112 3.795-8.131 5.13-13.877 13.093-19.39 20.783-5.466 7.623-11 15.773-18.993 20.98-4.875 3.177-10.356 4.349-15.81 6.135-5.468 1.791-10.717 4.812-12.946 10.414a10.126 10.126 0 0 0-.207 7.246c.518 1.425 2.814.81 2.29-.631Z"/>
    <path fill="#E6E6E6" d="m68.214 132.125-.003.001.007-.001h-.004Z"/>
    <path fill="#E6E6E6" d="M72.332 129.94a4.717 4.717 0 0 0-5.718-2.116 4.144 4.144 0 0 0-2.366 2.203c-.046.108-.072.221-.11.331-.05.084-.113.159-.159.246a4.715 4.715 0 0 0 7.355 5.634 5.079 5.079 0 0 0 .998-6.298Zm-2.974 2.017c.01.06.006.115 0 0Zm-.303-.688c-.011-.013-.01-.012 0 0Zm-1.332.536c-.018-.027-.02-.032 0 0Zm.316.268c.075.026.045.02 0 0Zm.14.067.032-.014a.035.035 0 0 1-.022-.005l.025.003.005-.002-.014-.003c.012 0 .013.001.014.003.141-.065.046-.033-.036-.008l-.006-.001a.55.55 0 0 0-.162-.053.082.082 0 0 1-.016-.008c-.046-.032-.275-.212-.062-.023a2.79 2.79 0 0 1-.136-.126.63.63 0 0 1-.07-.085 4.721 4.721 0 0 1-.081-.146l-.004-.026a.333.333 0 0 0-.01-.044.756.756 0 0 1 .007-.042.52.52 0 0 0 .03-.133l.009-.012c.034-.047.064-.103.096-.152-.172.261.068-.029.085-.066.004-.006-.002-.003 0-.007l.013-.006c.053-.032.104-.067.158-.097.064-.035.318-.108.055-.032.06-.017.117-.039.178-.055.01-.003.1-.015.147-.024l.087-.002c.02 0 .04.003.06.004-.044.005.15.047.207.056l.024.019c.048.036.108.067.159.101-.23-.149.003.011.047.055.026.026.05.054.075.082a.594.594 0 0 1 .061.084l.117.207.011.017v.007c.02.11.051.218.09.323a.2.2 0 0 1 .005.026c.004.061.01.121.01.181l-.001.013a1.3 1.3 0 0 0-1.186-.009Z"/>
    <path fill="#E6E6E6" d="M68.222 132.123c.004.001 0 .001-.001.002v-.002Zm-.002 0h.002-.001Z"/>
    <path fill="#E6E6E6" d="m68.222 132.124-.004.001c.005.001.003 0 .004-.001Zm-.003-.002.002.001-.002-.001Zm50.659-22.163-.003.002.006-.002h-.003Z"/>
    <path fill="#E6E6E6" d="M122.995 107.775a4.722 4.722 0 0 0-5.718-2.116 4.15 4.15 0 0 0-2.366 2.203c-.045.107-.072.221-.109.331-.051.083-.113.158-.159.245a4.711 4.711 0 0 0-.381 3.172 4.716 4.716 0 0 0 7.735 2.463 5.08 5.08 0 0 0 .998-6.298Zm-2.974 2.017c.01.06.006.115 0 0Zm-.302-.688c-.012-.013-.011-.012 0 0Zm-1.333.536c-.018-.027-.019-.032 0 0Zm.316.268c.075.025.045.02 0 0Zm.141.067.031-.014a.044.044 0 0 1-.022-.005h.001l.024.003.005-.002-.014-.003c.012-.001.014.001.014.003.142-.065.046-.034-.036-.008l-.005-.002a.575.575 0 0 0-.163-.052l-.016-.008c-.045-.032-.275-.212-.062-.024-.046-.041-.092-.081-.136-.125a.584.584 0 0 1-.07-.086 4.117 4.117 0 0 1-.081-.145l-.004-.026c-.003-.022-.006-.031-.009-.044l.006-.043a.496.496 0 0 0 .03-.132l.009-.012c.034-.048.064-.103.097-.153-.172.262.067-.028.085-.065.003-.006-.002-.003-.001-.007l.013-.006c.053-.032.104-.067.158-.097.065-.036.319-.108.055-.033.06-.017.118-.038.178-.054.011-.003.1-.015.147-.024l.087-.002.06.003c-.044.006.15.048.207.057l.024.019c.049.036.108.067.159.1-.229-.148.003.012.047.056.026.026.051.054.075.082a.563.563 0 0 1 .061.084c.038.069.078.138.118.206l.011.018-.001.007c.021.11.051.218.091.322a.256.256 0 0 1 .005.027c.003.06.008.121.009.181l-.001.012a1.303 1.303 0 0 0-1.186-.008Z"/>
    <path fill="#E6E6E6" d="m118.885 109.959-.004.001c.006 0 .004-.001.004-.001Zm-.003-.002.002.001-.002-.001Zm.003.001c.004.001 0 .001-.001.001l.001-.001Zm-.001 0h.001-.001Zm49.079 11.082.002.001-.002-.001Zm4.112-35.43a4.715 4.715 0 0 0-5.718-2.117 4.165 4.165 0 0 0-2.366 2.204c-.045.107-.072.22-.109.33-.051.084-.113.16-.159.246a4.712 4.712 0 0 0 4.391 6.828 4.712 4.712 0 0 0 2.963-1.193 5.08 5.08 0 0 0 .998-6.298Zm-2.974 2.016c.01.06.006.115 0 0Zm-.302-.687c-.012-.013-.01-.012 0 0Zm-1.333.536c-.018-.028-.019-.032 0 0Zm.316.268c.075.025.045.02 0 0Zm.141.067.031-.015a.035.035 0 0 1-.022-.004h.001l.025.003.004-.002-.014-.003c.012 0 .014 0 .014.003.142-.065.046-.034-.036-.008l-.005-.002a.537.537 0 0 0-.163-.052l-.016-.008c-.045-.033-.275-.212-.062-.024a2.647 2.647 0 0 1-.136-.125.632.632 0 0 1-.07-.086c-.027-.048-.055-.096-.081-.145l-.004-.026c-.003-.022-.006-.031-.009-.044l.006-.043a.504.504 0 0 0 .03-.133l.009-.011c.034-.048.064-.103.097-.153-.172.262.067-.029.085-.065.003-.007-.002-.003-.001-.008.007-.003.005 0 .013-.006.053-.031.104-.066.158-.096.065-.036.319-.108.055-.033.06-.017.118-.038.178-.054.011-.003.1-.016.148-.024l.087-.002.059.003c-.044.006.15.048.207.057l.024.019c.049.035.108.067.159.1-.229-.148.003.012.047.056.026.026.051.054.075.081a.606.606 0 0 1 .061.084c.038.07.078.14.118.207l.011.018-.001.006c.021.11.051.218.091.323a.243.243 0 0 1 .005.027c.003.06.008.12.009.181l-.001.012a1.303 1.303 0 0 0-1.186-.008Zm.035 33.232-.003.002.006-.002h-.003Zm.006-.002.001.001-.001-.001Zm.001.002h-.004.004Zm0-.002c.005.002.001.002 0 .002v-.002Zm53.982 25.524a4.716 4.716 0 0 0-5.718-2.116 4.15 4.15 0 0 0-2.366 2.203c-.045.108-.072.221-.109.331-.052.083-.113.159-.159.246a4.716 4.716 0 0 0 7.354 5.634 5.08 5.08 0 0 0 .998-6.298Zm-2.974 2.017c.01.06.006.115 0 0Zm-.302-.688c-.012-.013-.011-.012 0 0Zm-1.333.536c-.018-.027-.02-.032 0 0Zm.316.268c.075.025.045.02 0 0Zm.141.067.031-.014a.042.042 0 0 1-.022-.005h.001l.024.003.005-.002-.014-.003c.012-.001.013.001.014.003.142-.065.046-.033-.036-.008l-.005-.001a.566.566 0 0 0-.163-.053l-.016-.008c-.046-.032-.275-.212-.062-.024a2.287 2.287 0 0 1-.136-.125.584.584 0 0 1-.07-.086 4.117 4.117 0 0 1-.081-.145l-.004-.026c-.003-.022-.006-.031-.009-.044l.006-.043a.496.496 0 0 0 .03-.132l.009-.012c.034-.047.064-.103.097-.152-.173.261.067-.029.085-.066.003-.006-.003-.003-.001-.007.007-.004.005-.001.013-.006.053-.032.104-.067.158-.097.065-.036.319-.108.055-.032.06-.017.117-.039.178-.055.011-.003.1-.015.147-.024l.087-.002c.02 0 .04.003.059.004-.043.005.151.047.208.056a.288.288 0 0 0 .024.019c.049.036.108.067.159.1-.229-.148.003.012.047.056.026.026.05.054.075.082a.563.563 0 0 1 .061.084c.038.069.078.139.118.206l.011.018-.001.007c.021.11.051.218.091.322l.005.027c.003.061.008.121.008.181v.013a1.3 1.3 0 0 0-1.186-.009Zm.035-52.262-.004.002.007-.002h-.003Zm.006-.002h.001-.001Zm.001.002h-.004.004Zm0-.002c.005.002 0 .001-.001.002l.001-.002Zm-.003 0h.002-.002Zm46.708 15.832.001.001-.001-.001Zm4.111-2.182a4.724 4.724 0 0 0-5.718-2.117 4.165 4.165 0 0 0-2.367 2.204c-.045.107-.072.221-.109.331-.051.083-.113.158-.159.245a4.717 4.717 0 0 0 7.355 5.635 5.078 5.078 0 0 0 .998-6.298Zm-2.975 2.016c.01.06.006.115 0 0Zm-.302-.687c-.012-.013-.01-.012 0 0Zm-1.333.536c-.017-.028-.019-.032 0 0Zm.316.268c.075.025.046.02 0 0Zm.141.067.031-.015a.035.035 0 0 1-.022-.004h.001l.025.003.004-.002-.014-.003c.012-.001.014.001.015.003.141-.065.045-.034-.037-.008l-.005-.002a.545.545 0 0 0-.163-.052l-.016-.008c-.045-.033-.275-.212-.062-.024-.046-.041-.092-.081-.136-.125a.634.634 0 0 1-.069-.086 6.788 6.788 0 0 1-.082-.145l-.004-.026c-.003-.022-.006-.031-.009-.045l.006-.042a.503.503 0 0 0 .03-.133l.009-.011c.034-.048.064-.103.097-.153-.172.262.067-.029.085-.065.003-.007-.002-.003-.001-.008.007-.003.005-.001.013-.006.054-.031.104-.066.158-.096.065-.036.319-.108.055-.033.06-.017.118-.038.178-.054.011-.003.1-.015.148-.024l.087-.002.059.003c-.044.006.15.048.207.057l.024.019c.049.035.108.067.159.1-.229-.148.003.012.047.056a1.156 1.156 0 0 1 .137.165c.037.069.077.139.117.207l.011.018v.006c.02.11.051.218.09.323a.256.256 0 0 1 .005.027c.004.06.009.12.009.181l-.001.012a1.3 1.3 0 0 0-1.186-.008Z"/>
    <path fill="#E6E6E6" d="m264.535 112.334-.003.002.006-.002h-.003Zm.005-.002.002.001-.002-.001Zm.002.001c.005.001 0 .001 0 .001v-.001Zm.001.001-.005.001c.006 0 .004-.001.005-.001Z"/>
    <path fill="#3F3D56" d="m251.736 148.612-36.807 2.046a.81.81 0 0 1-.691-1.301.808.808 0 0 1 .515-.31l37.621-6.122-.638 5.687Z"/>
    <path fill="#FFB6B6" d="m298.513 230.558 13.871-23.336 10.252 4.842s-17.665 22.064-18.228 22.698a5.433 5.433 0 0 1-2.294 5.713 5.43 5.43 0 0 1-8.105-2.67 5.429 5.429 0 0 1 4.504-7.247Z"/>
    <path fill="#2EB7EB" d="m304.283 176.351 22.472 11.725a12.435 12.435 0 0 1 5.087 8.669 12.435 12.435 0 0 1-2.981 9.6l-15.492 17.771-6.749-9.145 5.202-10.877-10.072-2.656 2.533-25.087Z"/>
    <path fill="#FFB6B6" d="m240.244 148.994-2.531 27.028-11.338.019s6.505-27.506 6.741-28.32a5.432 5.432 0 0 1-.376-6.144 5.431 5.431 0 0 1 5.606-2.545 5.43 5.43 0 0 1 4.377 4.328 5.423 5.423 0 0 1-2.479 5.634Z"/>
    <path fill="#2EB7EB" d="m262.812 204.266-26.095-4.786c-10.989-1.321-15.498-8.551-13.516-15.604l6.381-22.696 10.017 5.371-.038 12.056 14.022-1.917 9.229 27.576Z"/>
    <path fill="#FFB6B6" d="M252.13 391.052h-7.175l-3.413-27.677h10.59l-.002 27.677Z"/>
    <path fill="#2F2E41" d="m252.383 398.537-22.065-.001v-.279c0-2.277.905-4.462 2.516-6.072a8.586 8.586 0 0 1 6.072-2.516h.001l4.03-3.057 7.52 3.058h1.927l-.001 8.867Z"/>
    <path fill="#FFB6B6" d="M302.9 391.052h7.176l3.413-27.677h-10.59l.001 27.677Z"/>
    <path fill="#2F2E41" d="m302.648 398.537 22.065-.001v-.279a8.586 8.586 0 0 0-2.516-6.072 8.586 8.586 0 0 0-6.072-2.516h-.001l-4.03-3.057-7.52 3.058h-1.927l.001 8.867Zm-61.422-55.5c.106-1.579.948-10.313.948-10.313l2.019-18.522 3.557-49.097 3.17-12.905 15.695 6.114 12.734-6.105 15.137 4.838 11.786 4.42s.02 1.892.111 4.178c.121 2.992.333 6.66.837 7.613.843 1.686.631 10.732.631 10.732s.838 18.406 1.892 20.424c1.055 2.018 1.267 6.221.949 7.064-.318.842 1.054 22.946 1.054 22.946s3.523 39.117 1.313 45.015c-2.21 5.898-10.561 2.034-10.561 2.034s.404-1.574-2.018-2.316c-2.422-.741-9.799-56.206-9.799-56.206s-1.372-11.372-2.633-14.632c-1.262-3.259-2.422-12.417-2.422-12.417s-7.79-15.156-7.891-18.527c0 0-1.019-3.153-1.983.318-.964 3.472-3.804 11.787-3.804 11.787l-2.77 10.211-3.26 15.258-2.109 12.846s-3.158 17.048-3.663 17.785c-.504.736 0 16.312 0 16.312s-2.442 13.264-5.893 15.58c-3.451 2.316-12.594.037-12.594.037s-.539-32.893-.433-34.472Z"/>
    <path fill="#2EB7EB" d="m252.958 210.674-2.005 25.98-3.013 3.118a2.9 2.9 0 0 0-.541 3.253 2.9 2.9 0 0 0 .693.931l-1.66 2.847-.587 8.969a4.862 4.862 0 0 0 .841 4.066 4.88 4.88 0 0 0 3.67 1.942l51.955 2.441a4.88 4.88 0 0 0 3.82-1.572 4.877 4.877 0 0 0 1.241-3.939l-4.417-33.259v-2.487l-1.978-4.803 1.016-16.089 2.365-25.536-13.745-3.55-7.452-5.128-12.946.207-7.856 6.451-10.474 1.641-7.922 1.574-1.009 2.193 2.018-.438 7.315 28.531.671 2.657Z"/>
    <path fill="#FFB6B6" d="M276.399 164.377c8.423 0 15.251-6.828 15.251-15.251 0-8.423-6.828-15.251-15.251-15.251-8.423 0-15.252 6.828-15.252 15.251 0 8.423 6.829 15.251 15.252 15.251Z"/>
    <path fill="#2F2E41" d="m272.722 163.393 11.019-.562c1.412-.072 2.953-.196 3.979-1.168.553-.6.978-1.306 1.25-2.075 1.018-2.366 2.037-4.733 3.03-7.11 1.373-3.288 2.721-6.76 2.371-10.306a6.562 6.562 0 0 0-1.907-4.3 3.639 3.639 0 0 0-4.425-.448 7.474 7.474 0 0 0-3.714-5.393 11.48 11.48 0 0 0-6.541-1.387 15.786 15.786 0 0 0-8.989 3.544 19.598 19.598 0 0 1-2.294 1.817 3.602 3.602 0 0 1-2.799.518 2.027 2.027 0 0 1-1.487-2.208 3.896 3.896 0 0 0-.997 5.145 3.59 3.59 0 0 1-3.515-.416 4.3 4.3 0 0 0-.516 7.397 4.304 4.304 0 0 0 5.023-.123c.668.937.419 2.21.332 3.357-.087 1.148.221 2.574 1.327 2.891 1.496.429 2.708-1.585 4.263-1.563a2.334 2.334 0 0 1 1.856 1.195c.366.677.617 1.41.743 2.169l1.991 8.964"/>
    <path fill="#E6E6E6" d="M702.367 300.526c0-2.361-.794-4.278-1.767-4.282H435.136c-.979.004-1.767 1.921-1.772 4.282v97.218a.881.881 0 0 1-.797.879c-.712.068-1.425.132-2.137.191-.018 0-.035.004-.053.004-.388.035-.775.062-1.163.093h-.005a83.808 83.808 0 0 1-.591-1.116.887.887 0 0 1-.1-.41V294.97c0-.652.026-1.308.07-1.956.063-.889.173-1.775.331-2.653.744-4.093 2.427-6.864 4.34-6.873h269.213c.279.002.555.06.811.172a3.16 3.16 0 0 1 1 .7c.387.402.717.854.983 1.344a17.697 17.697 0 0 1 1.855 7.019c0 .027.004.053.004.079.062.714.093 1.441.088 2.168l.062 9.443.04 5.631.119 17.668.044 6.274.193 64.418a.877.877 0 0 1-.881.881h-3.542a.881.881 0 0 1-.881-.881v-97.878Z"/>
    <path fill="#CCC" d="M630.231 239.305h-28.604a1.526 1.526 0 0 0-1.524 1.528v45.186h31.656v-45.186a1.526 1.526 0 0 0-1.528-1.528Zm-14.206 25.675a3.398 3.398 0 0 1-3.377-3.378v-5.212a3.377 3.377 0 1 1 6.755 0v5.212a3.393 3.393 0 0 1-3.378 3.378Z"/>
    <path fill="#3F3D56" d="M600.005 284.574v4.36a.853.853 0 0 0 .852.852h30.148a.855.855 0 0 0 .852-.852v-4.36h-31.852Z"/>
    <path fill="#E6E6E6" d="M677.597 168.787H555.325a3.97 3.97 0 0 0-3.962 3.963v82.51a3.967 3.967 0 0 0 3.962 3.962h122.272a3.97 3.97 0 0 0 3.963-3.962v-82.51a3.966 3.966 0 0 0-3.963-3.963Z"/>
    <path fill="#fff" d="M676.577 171.649h-120.23a2.125 2.125 0 0 0-2.119 2.124v80.465a2.12 2.12 0 0 0 2.119 2.119h120.23a2.122 2.122 0 0 0 2.119-2.119v-80.465a2.125 2.125 0 0 0-2.119-2.124Z"/>
    <path fill="#CCC" d="M653.158 291.303h-71.53a1.32 1.32 0 0 1-1.279-1.007 1.32 1.32 0 0 1-.009-.58l1.11-5.271a1.318 1.318 0 0 1 1.288-1.045h69.31a1.32 1.32 0 0 1 1.288 1.045l1.11 5.271a1.32 1.32 0 0 1-.722 1.459 1.32 1.32 0 0 1-.566.128Z"/>
    <path fill="#E6E6E6" d="M585.062 284.349h-1.43a.386.386 0 0 0-.386.386v.549c0 .214.173.387.386.387h1.43a.387.387 0 0 0 .387-.387v-.549a.386.386 0 0 0-.387-.386Zm4.406 0h-1.43a.386.386 0 0 0-.386.386v.549c0 .214.173.387.386.387h1.43a.387.387 0 0 0 .387-.387v-.549a.386.386 0 0 0-.387-.386Zm4.406 0h-1.43a.386.386 0 0 0-.386.386v.549c0 .214.173.387.386.387h1.43a.387.387 0 0 0 .387-.387v-.549a.386.386 0 0 0-.387-.386Zm4.406 0h-1.43a.386.386 0 0 0-.386.386v.549c0 .214.173.387.386.387h1.43a.387.387 0 0 0 .387-.387v-.549a.386.386 0 0 0-.387-.386Zm4.407 0h-1.43a.386.386 0 0 0-.387.386v.549c0 .214.173.387.387.387h1.43a.386.386 0 0 0 .386-.387v-.549a.386.386 0 0 0-.386-.386Zm4.406 0h-1.43a.386.386 0 0 0-.387.386v.549c0 .214.173.387.387.387h1.43a.386.386 0 0 0 .386-.387v-.549a.386.386 0 0 0-.386-.386Zm4.406 0h-1.43a.386.386 0 0 0-.387.386v.549c0 .214.173.387.387.387h1.43a.386.386 0 0 0 .386-.387v-.549a.386.386 0 0 0-.386-.386Zm4.406 0h-1.43a.386.386 0 0 0-.387.386v.549c0 .214.173.387.387.387h1.43a.386.386 0 0 0 .386-.387v-.549a.386.386 0 0 0-.386-.386Zm4.406 0h-1.43a.386.386 0 0 0-.386.386v.549c0 .214.173.387.386.387h1.43a.387.387 0 0 0 .387-.387v-.549a.386.386 0 0 0-.387-.386Zm4.406 0h-1.43a.386.386 0 0 0-.386.386v.549c0 .214.173.387.386.387h1.43a.387.387 0 0 0 .387-.387v-.549a.386.386 0 0 0-.387-.386Zm4.406 0h-1.43a.386.386 0 0 0-.386.386v.549c0 .214.173.387.386.387h1.43a.387.387 0 0 0 .387-.387v-.549a.386.386 0 0 0-.387-.386Zm4.406 0h-1.43a.386.386 0 0 0-.386.386v.549c0 .214.173.387.386.387h1.43a.387.387 0 0 0 .387-.387v-.549a.386.386 0 0 0-.387-.386Zm4.406 0h-1.43a.386.386 0 0 0-.386.386v.549c0 .214.173.387.386.387h1.43a.387.387 0 0 0 .387-.387v-.549a.386.386 0 0 0-.387-.386Zm4.407 0h-1.43a.386.386 0 0 0-.387.386v.549c0 .214.173.387.387.387h1.43a.386.386 0 0 0 .386-.387v-.549a.386.386 0 0 0-.386-.386Zm4.406 0h-1.43a.386.386 0 0 0-.387.386v.549c0 .214.173.387.387.387h1.43a.386.386 0 0 0 .386-.387v-.549a.386.386 0 0 0-.386-.386Zm4.406 0h-1.43a.386.386 0 0 0-.387.386v.549c0 .214.173.387.387.387h1.43a.386.386 0 0 0 .386-.387v-.549a.386.386 0 0 0-.386-.386Zm-66.144 2.203h-1.43a.387.387 0 0 0-.387.387v.548c0 .214.173.387.387.387h1.43a.386.386 0 0 0 .386-.387v-.548a.386.386 0 0 0-.386-.387Zm4.406 0h-1.43a.386.386 0 0 0-.386.387v.548c0 .214.173.387.386.387h1.43a.387.387 0 0 0 .387-.387v-.548a.387.387 0 0 0-.387-.387Zm4.406 0h-1.43a.386.386 0 0 0-.386.387v.548c0 .214.173.387.386.387h1.43a.387.387 0 0 0 .387-.387v-.548a.387.387 0 0 0-.387-.387Zm4.406 0h-1.43a.386.386 0 0 0-.386.387v.548c0 .214.173.387.386.387h1.43a.387.387 0 0 0 .387-.387v-.548a.387.387 0 0 0-.387-.387Zm4.406 0h-1.43a.386.386 0 0 0-.386.387v.548c0 .214.173.387.386.387h1.43a.387.387 0 0 0 .387-.387v-.548a.387.387 0 0 0-.387-.387Zm4.407 0h-1.43a.387.387 0 0 0-.387.387v.548c0 .214.173.387.387.387h1.43a.386.386 0 0 0 .386-.387v-.548a.386.386 0 0 0-.386-.387Zm4.406 0h-1.43a.387.387 0 0 0-.387.387v.548c0 .214.173.387.387.387h1.43a.386.386 0 0 0 .386-.387v-.548a.386.386 0 0 0-.386-.387Zm4.406 0h-1.43a.387.387 0 0 0-.387.387v.548c0 .214.173.387.387.387h1.43a.386.386 0 0 0 .386-.387v-.548a.386.386 0 0 0-.386-.387Zm4.406 0h-1.43a.387.387 0 0 0-.387.387v.548c0 .214.173.387.387.387h1.43a.386.386 0 0 0 .386-.387v-.548a.386.386 0 0 0-.386-.387Zm4.406 0h-1.43a.386.386 0 0 0-.386.387v.548c0 .214.173.387.386.387h1.43a.387.387 0 0 0 .387-.387v-.548a.387.387 0 0 0-.387-.387Zm4.406 0h-1.43a.386.386 0 0 0-.386.387v.548c0 .214.173.387.386.387h1.43a.387.387 0 0 0 .387-.387v-.548a.387.387 0 0 0-.387-.387Zm4.406 0h-1.43a.386.386 0 0 0-.386.387v.548c0 .214.173.387.386.387h1.43a.387.387 0 0 0 .387-.387v-.548a.387.387 0 0 0-.387-.387Zm4.406 0h-1.43a.386.386 0 0 0-.386.387v.548c0 .214.173.387.386.387h1.43a.387.387 0 0 0 .387-.387v-.548a.387.387 0 0 0-.387-.387Zm4.407 0h-1.43a.387.387 0 0 0-.387.387v.548c0 .214.173.387.387.387h1.43a.386.386 0 0 0 .386-.387v-.548a.386.386 0 0 0-.386-.387Zm4.406 0h-1.43a.387.387 0 0 0-.387.387v.548c0 .214.173.387.387.387h1.43a.386.386 0 0 0 .386-.387v-.548a.386.386 0 0 0-.386-.387Zm4.406 0h-1.43a.387.387 0 0 0-.387.387v.548c0 .214.173.387.387.387h1.43a.386.386 0 0 0 .386-.387v-.548a.386.386 0 0 0-.386-.387Zm-29.521 2.644h-16.852a.386.386 0 0 0-.386.386v.549c0 .214.173.387.386.387h16.852a.386.386 0 0 0 .386-.387v-.549a.386.386 0 0 0-.386-.386Z"/>
    <path fill="#CACACA" d="M670.533 182.736H558.035a.447.447 0 0 1-.31-.761.446.446 0 0 1 .31-.134h112.498a.447.447 0 0 1 0 .895Z"/>
    <path fill="#CCC" d="M565.692 179.557c1.448 0 2.622-1.2 2.622-2.681 0-1.48-1.174-2.68-2.622-2.68s-2.621 1.2-2.621 2.68c0 1.481 1.173 2.681 2.621 2.681Zm9.058 0c1.448 0 2.622-1.2 2.622-2.681 0-1.48-1.174-2.68-2.622-2.68s-2.622 1.2-2.622 2.68c0 1.481 1.174 2.681 2.622 2.681Zm9.057 0c1.448 0 2.622-1.2 2.622-2.681 0-1.48-1.174-2.68-2.622-2.68s-2.622 1.2-2.622 2.68c0 1.481 1.174 2.681 2.622 2.681Zm81.273-4.697h-6.434a.486.486 0 0 0-.478.488.485.485 0 0 0 .478.487h6.434a.49.49 0 0 0 .477-.487.487.487 0 0 0-.477-.488Zm0 1.829h-6.434a.488.488 0 0 0 0 .974h6.434a.485.485 0 0 0 .477-.487.489.489 0 0 0-.477-.487Zm0 1.826h-6.434a.49.49 0 0 0-.478.487.488.488 0 0 0 .478.488h6.434a.49.49 0 0 0 .477-.488.489.489 0 0 0-.477-.487Z"/>
    <path fill="#2EB7EB" d="M623.367 207.109H609.31a1.912 1.912 0 1 0 0 3.824h14.057a1.912 1.912 0 1 0 0-3.824Z"/>
    <path fill="#E6E6E6" d="M632.448 214.757h-32.219a1.911 1.911 0 1 0 0 3.823h32.219a1.912 1.912 0 1 0 0-3.823Zm0 7.647h-32.219a1.912 1.912 0 1 0 0 3.823h32.219a1.912 1.912 0 1 0 0-3.823Z"/>
    <path fill="#FFB6B6" d="m415.381 341.54-6.48-3.1 8.902-27.087 9.564 4.574-11.986 25.613Zm43.446-4.367a170.08 170.08 0 0 1-5.726 3.427v.014l-.029.005-.01.005-.733.181-1.052-2.78-.485-1.28-.685-1.814-1.257-3.318-6.617-17.469 10.287-2.537.385 1.575h.005l.191.781 3.593 14.575.733 2.98.024.09.443 1.781.381 1.542.423 1.723.129.519Z"/>
    <path fill="#2F2E41" d="M520.19 275.824a189.8 189.8 0 0 1-1.99 3.123 181.161 181.161 0 0 1-3.841 5.684c0 .004-.005.004-.01.009a13.42 13.42 0 0 1-2.523 1.842c-.038.029-.081.048-.119.072-.67.37-1.383.656-2.123.852l-.804.2c-.962.228-1.914.423-2.861.595a52.805 52.805 0 0 1-5.008.647c-.133.014-.266.024-.399.033-6.812.5-13.443-.304-20.364-1.623-3.418-.647-6.907-1.423-10.52-2.228-1.18-.266-2.365-.528-3.565-.79-.09-.019-.186-.043-.281-.062a402.514 402.514 0 0 0-5.241-1.114 247.324 247.324 0 0 0-6.973-1.332l.171 3.394c.143 2.61.686 5.184 1.609 7.63 1.028 3.008 1.842 5.388.124 10.344l-.828 2.399a8.198 8.198 0 0 1-.843 7.249l-.166.252 6.906 17.475.448 1.132h-3.537l-4.351.005h-7.373l-10.639-21.344-.509-1.019v-.052l1.1-41.017c.014-.362.042-.729.09-1.09a12.465 12.465 0 0 1 4.746-8.397 12.012 12.012 0 0 1 8.944-2.447l3.641.472 7.44.961 5.241.681.105.014 15.456 1.999 1.109-4.522.205-.076 6.507-2.385 22.505-8.249.057-.019 1.481-.543.176.286c.052.086.104.171.152.257a44.117 44.117 0 0 1 3.556 8.254 129.546 129.546 0 0 1 3.851 14.837l.014.053a13.306 13.306 0 0 1-.766 7.558Z"/>
    <path fill="#2F2E41" d="M521.14 260.708a12.943 12.943 0 0 0-.257-.914 65.175 65.175 0 0 0-2.637-6.673c-1.124-2.475-2.471-5.127-4.075-7.997a180.375 180.375 0 0 0-3.899-6.636 1.087 1.087 0 0 0-.061-.104l-.138-.229-22.268 2.98-8.292 1.109-.495 4.132-.119 1.023c-.005 0-.005 0 0 .005l-.333 2.789v.005l-.443 3.684-.038-.004-12.305-1.595-12.681-1.642-6.811-.881a12.017 12.017 0 0 0-8.944 2.447 12.472 12.472 0 0 0-4.746 8.397c-.043.333-.071.676-.086 1.014l-6.426 15.227a98.27 98.27 0 0 0-7.264 28.579l-4.712 15.066.671.062 9.987.928 2.637.247 5.807-8.477a44.258 44.258 0 0 0 1.875-2.98 45.299 45.299 0 0 0 2.566-5.16l12.562-29.893c.971.167 1.932.325 2.884.476a257.11 257.11 0 0 0 12.681 1.747c13.171 1.471 24.576 1.585 34.73.338a94.769 94.769 0 0 0 8.268-1.371 79.148 79.148 0 0 0 2.889-.662c.224-.052.443-.104.662-.161a12.145 12.145 0 0 0 8.497-7.94 12.4 12.4 0 0 0 .314-6.936Zm-103.689 76.409-7.011-3.361-1.1-.528-1.756 4.312-12.262 2.699a2.91 2.91 0 0 0-.476 5.536l11.981 4.889 3.803-3.423-.933 4.594 4.513 1.842 4.945-15.742-1.704-.818Zm43.09-6.642.448 1.133h-.448v-1.133Zm-2.441 1.375-7.347 2.545-1.153.398 1.786 4.301-6.814 10.545a2.913 2.913 0 0 0 .207 3.444 2.908 2.908 0 0 0 3.35.825l11.953-4.957.295-5.108 2.569 3.921 4.502-1.866-7.561-14.666-1.787.618Z"/>
    <path fill="#FFB6B6" d="M413.508 174.353a5.221 5.221 0 0 0 5.75 2.716 5.217 5.217 0 0 0 2.053-.948l15.449 10.256.03-9.636-14.675-8.262a5.246 5.246 0 0 0-8.607 5.873v.001Z"/>
    <path fill="#CCC" d="m425.05 178.806 7.207-8.2 29.349 17.423 38.904-3.563a13.157 13.157 0 0 1 14.3 14.314 13.176 13.176 0 0 1-4.698 8.903 13.175 13.175 0 0 1-9.614 2.984l-43.816-4.056-31.632-27.805Z"/>
    <path fill="#CCC" d="m515.346 178.933-.067-.085a28.425 28.425 0 0 0-27.511 14.254l-3.301 5.816c-10.68 13.057-2.919 22.06-2.455 23.399l-3.707 17.093.831 5.72.415 1.699 42.315 22.11c2.409-11.575.08-21.439-8.697-28.974l8.492-26.422a37.229 37.229 0 0 0-6.315-34.61Z"/>
    <path fill="#2EB7EB" d="M481.701 307.299h-13.573a3.108 3.108 0 0 1-2.032-.76 3.107 3.107 0 0 1-1.036-1.906 69.017 69.017 0 0 1 0-18.586 3.098 3.098 0 0 1 3.015-2.665c4.271-1.915 8.87-1.914 13.672-.001a3.07 3.07 0 0 1 2.332 1.125 3.127 3.127 0 0 1 .648 2.614 41.697 41.697 0 0 0 0 16.44 3.136 3.136 0 0 1-.648 2.614 3.073 3.073 0 0 1-2.378 1.125Z"/>
    <path fill="#fff" d="M480.279 290.468h-11.424a.72.72 0 0 1-.665-.44.698.698 0 0 1 0-.549.717.717 0 0 1 .39-.387.719.719 0 0 1 .275-.052h11.424a.719.719 0 0 1 .666.439.718.718 0 0 1-.157.782.706.706 0 0 1-.509.207Zm0 5.712h-11.424a.72.72 0 0 1-.665-.44.698.698 0 0 1 0-.549.703.703 0 0 1 .39-.387.719.719 0 0 1 .275-.052h11.424a.719.719 0 0 1 .666.439.718.718 0 0 1-.157.782.706.706 0 0 1-.509.207Zm0 5.712h-11.424a.706.706 0 0 1-.666-.439.726.726 0 0 1 0-.55.721.721 0 0 1 .666-.439h11.424a.719.719 0 0 1 .666.439.718.718 0 0 1-.157.782.706.706 0 0 1-.509.207Z"/>
    <path fill="#2EB7EB" d="M415.997 179.057h-13.573a3.103 3.103 0 0 1-3.068-2.665 69.025 69.025 0 0 1 0-18.587c.103-.731.464-1.4 1.017-1.888a3.096 3.096 0 0 1 1.999-.777c4.27-1.914 8.869-1.914 13.671 0a3.063 3.063 0 0 1 2.333 1.124 3.145 3.145 0 0 1 .647 2.614 41.697 41.697 0 0 0 0 16.44 3.135 3.135 0 0 1-.647 2.614 3.07 3.07 0 0 1-2.379 1.125Z"/>
    <path fill="#fff" d="M414.575 162.226h-11.424a.706.706 0 0 1-.665-.439.703.703 0 0 1 0-.55.703.703 0 0 1 .39-.387.719.719 0 0 1 .275-.052h11.424a.719.719 0 0 1 .509.207.703.703 0 0 1 .211.507.703.703 0 0 1-.211.507.706.706 0 0 1-.509.207Zm0 5.712h-11.424a.706.706 0 0 1-.665-.439.703.703 0 0 1 0-.55.703.703 0 0 1 .39-.386.701.701 0 0 1 .275-.053h11.424a.701.701 0 0 1 .275.053.703.703 0 0 1 .445.661.703.703 0 0 1-.211.507.706.706 0 0 1-.509.207Zm0 5.712h-11.424a.719.719 0 0 1-.666-.439.722.722 0 0 1 0-.55.706.706 0 0 1 .391-.386.701.701 0 0 1 .275-.053h11.424a.701.701 0 0 1 .275.053.706.706 0 0 1 .446.661.722.722 0 0 1-.212.507.708.708 0 0 1-.509.207Z"/>
    <path fill="#2EB7EB" d="M177.72 213.888h-13.573a3.1 3.1 0 0 1-3.067-2.665 68.943 68.943 0 0 1 0-18.587 3.1 3.1 0 0 1 3.015-2.665c4.271-1.914 8.87-1.914 13.672 0a3.058 3.058 0 0 1 2.332 1.124 3.136 3.136 0 0 1 .647 2.614 41.735 41.735 0 0 0 0 16.44 3.135 3.135 0 0 1-.647 2.614 3.065 3.065 0 0 1-2.379 1.125Z"/>
    <path fill="#fff" d="M176.299 197.057h-11.424a.701.701 0 0 1-.275-.053.703.703 0 0 1-.445-.661.703.703 0 0 1 .211-.507.706.706 0 0 1 .509-.207h11.424a.706.706 0 0 1 .665.439.703.703 0 0 1 0 .55.703.703 0 0 1-.39.386.701.701 0 0 1-.275.053Zm0 5.712h-11.424a.719.719 0 0 1-.509-.207.703.703 0 0 1-.211-.507.703.703 0 0 1 .211-.507.706.706 0 0 1 .509-.207h11.424a.706.706 0 0 1 .665.439.703.703 0 0 1 0 .55.703.703 0 0 1-.39.387.719.719 0 0 1-.275.052Zm0 5.712h-11.424a.715.715 0 0 1-.666-.989.706.706 0 0 1 .391-.386.698.698 0 0 1 .275-.053h11.424a.701.701 0 0 1 .275.053.721.721 0 0 1 .446.661.722.722 0 0 1-.212.507.708.708 0 0 1-.509.207Z"/>
    <path fill="#FFB6B6" d="M485.678 289.948a5.22 5.22 0 0 0 1.302-7.894l9.322-16.03-9.621.542-7.377 15.139a5.246 5.246 0 0 0 6.374 8.243Z"/>
    <path fill="#CCC" d="m489.439 278.163-8.613-6.709 15.651-30.33-5.865-38.625a13.157 13.157 0 0 1 13.44-15.123 13.167 13.167 0 0 1 12.715 13.581l-1.449 43.98-25.879 33.226Z"/>
    <path fill="#9E616A" d="M73.134 269.876a5.258 5.258 0 0 0 .816-6.36 5.25 5.25 0 0 0-1.548-1.674l8.377-41.608-9.25 2.97-6.706 40.245a5.29 5.29 0 0 0 8.31 6.427Z"/>
    <path fill="#CCC" d="m85.503 181.845-5.74-4.332s-5.063-.359-5.96 8.772c-.897 9.131-2.738 26.926-2.738 26.926l-8.783 40.678 12.158 2.669 9.407-43.899 5.643-13.037-3.987-17.777Z"/>
    <path fill="#9E616A" d="m76.04 248.269 32.343-.539 2.696-22.101H76.04v22.64Zm29.109 136.003h7.466l3.552-28.8-11.02.001.002 28.799Zm-46.777.691 7.467-.053 3.35-28.823-9.711 2.227-1.106 26.649Z"/>
    <path fill="#FFB6B6" d="m81.725 206.596-1.692 4.398.338 4.399 33.111 11.468-1.642-19.25-3.723-4.399-26.392 3.384Z"/>
    <path fill="#9E616A" d="M95.93 167.011c6.531 0 11.826-5.294 11.826-11.826 0-6.531-5.295-11.825-11.826-11.825-6.532 0-11.826 5.294-11.826 11.825 0 6.532 5.294 11.826 11.826 11.826Z"/>
    <path fill="#2F2E41" d="m103.297 380.588 11.803-.704v5.057l11.221 7.75a3.157 3.157 0 0 1-1.794 5.758h-14.052l-2.423-5.002-.945 5.002h-5.298l1.488-17.861Zm-47.479.709 11.798-.787.035 5.057 11.276 7.671a3.16 3.16 0 0 1-1.755 5.771l-14.051.098-2.458-4.985-.91 5.009-5.298.037 1.363-17.871Zm.231-18.415 5.437-43.458 6.468-45.82c-4.737-8.797 5.93-36.116 5.93-36.116l1.505.072 34.079 6.429-.007-.032c6.97 19.011 9.28 28.403 8.898 48.648l-1.373 72.777h.43c.715 0 1.401.284 1.906.79a2.693 2.693 0 0 1 0 3.811 2.693 2.693 0 0 1-1.906.79H103.94a2.706 2.706 0 0 1-2.494-1.663 2.688 2.688 0 0 1 .585-2.94 2.706 2.706 0 0 1 1.909-.788h.348l-12.37-86.656-10.488 36.385-11.859 47.437c4.313-1.078 3.643 1.42 3.643 2.834a2.694 2.694 0 0 1-2.695 2.696H57.043a2.698 2.698 0 0 1-2.648-2.187 2.69 2.69 0 0 1 1.654-3.009Z"/>
    <path fill="#CCC" d="m71.23 238.903 1.078-10.781a2.148 2.148 0 0 1 1.944-1.614c.449-5.136 2.339-27.292 2.452-28.258l.004-.041.86-18.359a2.718 2.718 0 0 1 2.535-2.582l4.539-.297a.239.239 0 0 0 .232-.24 3.815 3.815 0 0 1 2.356-3.526c.463-.192.96-.291 1.461-.291h13.439a3.573 3.573 0 0 1 3.545 3.129.238.238 0 0 0 .241.213h.002a6.39 6.39 0 0 1 6.423 5.296c1.837 10.69 5.519 34.952 3.699 48.44-.634 4.696.732.977.972 4.906a2.9 2.9 0 0 1-.72 2.096 2.087 2.087 0 0 1 1.255 2.65l.236-.058a2.156 2.156 0 0 1-2.618 1.564l-35.16 4.764c-1.155-.291-9.066-5.856-8.775-7.011Z"/>
    <path fill="#9E616A" d="M165.183 195.07a5.265 5.265 0 0 1-5.2 3.752 5.266 5.266 0 0 1-2.21-.561l-13.592 12.405-1.805-9.547 13.193-10.285a5.285 5.285 0 0 1 6.689-2.152 5.29 5.29 0 0 1 2.925 6.388Z"/>
    <path fill="#CCC" d="M117.872 185.588s-4.739-10.711-10.725-8.582c-5.987 2.129-2.896 12.522-2.896 12.522l22.491 33.89s32.439-20.81 28.495-20.957c-3.945-.147-5.125-7.321-5.125-7.321l-17.145 8.566-.58-3.049-.93.929-2.399-1.888-11.186-14.11Z"/>
    <path fill="#FFB6B6" d="M505.591 173.821c9.119 0 16.511-7.392 16.511-16.51 0-9.119-7.392-16.511-16.511-16.511-9.118 0-16.51 7.392-16.51 16.511 0 9.118 7.392 16.51 16.51 16.51Z"/>
    <path fill="#2F2E41" d="M558.579 181.606a14.314 14.314 0 0 1-7.87 5.541 16.5 16.5 0 0 1-3.919.666 14.84 14.84 0 0 0-1.164-4.353 12.24 12.24 0 0 1-.605 4.343 14.578 14.578 0 0 1-5.728-1.535 12.622 12.622 0 0 1-6.754-9.059c-.699-4.516 1.348-8.951 2.089-13.46.743-4.509-.652-10.22-5.066-11.405-3.362-.903-2.985-.513-5.779 1.562 2.906 4.298-7.83 20.048-12.224 18.675-2.484-.777-4.075-3.056-4.587-3.056-3.453 5.949 3.049 15.972-3.504 18.053l.539-.539c3.956-4.866-4.312-15.165-.356-20.03 1.103-1.362 2.278-2.975 1.952-4.696-.309-1.637-2.906-2.503-3.667-1.158 1.369-3.134-.652-7.317-3.996-8.122-2.971-.716-2.917.166-5.898.55a14.807 14.807 0 0 0-1.083-3.738 12.158 12.158 0 0 1-.445 3.809 4.784 4.784 0 0 1-2.893-1.045c-2.431-1.96-1.939-6.075.231-8.319 2.173-2.245 5.402-3.053 8.482-3.576.895-6.234 18.096-6.884 20.376-.655.971-4.652 6.794-7.066 11.32-5.623 4.526 1.443 7.667 5.671 9.321 10.125 1.653 4.452 2.115 9.243 3.134 13.881 1.019 4.638 2.74 9.361 6.285 12.522 3.545 3.158 9.32 4.204 13.055 1.27a10.452 10.452 0 0 1-1.246 9.372Z"/>
    <path fill="#E4E4E4" d="m713.479 219.283-2.311 11.598c-.174.886-.357 1.789-.554 2.683a11.319 11.319 0 0 0-5.811.325 54.263 54.263 0 0 1 3.99 6.673c-1.457 4.488-3.594 8.636-7.172 11.637a17.98 17.98 0 0 1-17.376 3.055l.103-.459c-3.848-7.465-1.758-16.877 3.024-23.772a46.191 46.191 0 0 1 8.589-9.08c3.23-2.691 6.721-5.106 10.18-7.488a4.738 4.738 0 0 1 5.293-.054 4.742 4.742 0 0 1 2.045 4.882Z"/>
    <path fill="#F2F2F2" d="M685.068 283.159c-.973-7.088-1.974-14.265-1.291-21.429.606-6.361 2.546-12.574 6.498-17.669a29.408 29.408 0 0 1 7.542-6.834c.754-.475 1.448.719.697 1.193a27.941 27.941 0 0 0-11.053 13.336c-2.407 6.121-2.793 12.793-2.375 19.295.251 3.932.782 7.837 1.318 11.74a.717.717 0 0 1-.072.521.716.716 0 0 1-.411.329.7.7 0 0 1-.85-.483l-.003.001Z"/>
    <path fill="#CACACA" d="M740.113 399.757.943 400a.942.942 0 0 1 0-1.885l739.17-.243a.942.942 0 0 1 0 1.885Z"/>
    <path fill="#2F2E41" d="M82.011 147.945c-1.814.87-3.844-.44-5.41-1.737l.56.484c-2.767 2.692-4.061 6.566-4.693 10.379-.633 3.81-.704 7.706-1.5 11.488-.798 3.778-2.452 7.575-5.542 9.889-4.14 3.099-9.848 2.9-14.928 1.95l-.198-.038a31.01 31.01 0 0 0 1.633-12.294 28.197 28.197 0 0 1-6.77 11.095 64.679 64.679 0 0 1-9.83-3.582c-2.054-.945-4.265-2.238-4.835-4.427-.572-2.173.755-4.451 2.53-5.823 1.775-1.372 3.953-2.088 5.974-3.065 2.019-.972 4.016-2.359 4.825-4.453 1.864-4.816-3.447-10.343-1.377-15.077 1.02-2.328 3.52-3.594 5.87-4.571a86.271 86.271 0 0 1 11.023-3.718c3.296-.869 6.737-1.545 10.094-.975 3.358.57 6.647 2.612 7.855 5.8 2.016.682 4.156 1.45 5.45 3.147 1.294 1.693 1.19 4.607-.73 5.528Z"/>
    <path fill="#2F2E41" d="M98.15 142.364c-5.19-4.097-9.384-3.397-12.62-.852-.545-.606-2.86 1.06-3.644.82l-2.835 5.323c-1.46 2.575-2.058 5.203-1.822 6.682-2.684 7.527 3.68 12.61 11.207 15.293a14.357 14.357 0 0 0 9.313.135l.093-1.282.57 1.051s6.881 14.168 8.507 14.804c-.987-2.559-3.589-14.723-4.315-17.259-.996-3.449-.316-8.93.269-12.29.365-2.072.384-4.19.057-6.268l-.015-.09 1.61 3.249 3.612-2.271c-1.38-4.021-1.408-8.831-9.987-7.045Z"/>
  </g>
  <defs>
    <clipPath id="a">
      <path fill="#fff" d="M0 0h741.056v400H0z"/>
    </clipPath>
  </defs>
</svg>
