<?xml version="1.0" encoding="UTF-8" standalone="no"?>
<!-- Generator: Adobe Illustrator 24.1.0, SVG Export Plug-In . SVG Version: 6.00 Build 0)  -->

<svg
   version="1.1"
   id="Calque_1"
   x="0px"
   y="0px"
   viewBox="0 0 1920 1080"
   style="enable-background:new 0 0 1920 1080;"
   xml:space="preserve"
   sodipodi:docname="logoBish (3).svg"
   inkscape:version="1.1.2 (b8e25be833, 2022-02-05)"
   xmlns:inkscape="http://www.inkscape.org/namespaces/inkscape"
   xmlns:sodipodi="http://sodipodi.sourceforge.net/DTD/sodipodi-0.dtd"
   xmlns="http://www.w3.org/2000/svg"
   xmlns:svg="http://www.w3.org/2000/svg"><defs
   id="defs31" /><sodipodi:namedview
   id="namedview29"
   pagecolor="#ffffff"
   bordercolor="#999999"
   borderopacity="1"
   inkscape:pageshadow="0"
   inkscape:pageopacity="0"
   inkscape:pagecheckerboard="0"
   showgrid="false"
   inkscape:zoom="0.35355339"
   inkscape:rotation="5"
   inkscape:cx="-188.69856"
   inkscape:cy="293.33403"
   inkscape:window-width="2400"
   inkscape:window-height="1271"
   inkscape:window-x="2391"
   inkscape:window-y="-9"
   inkscape:window-maximized="1"
   inkscape:current-layer="g26" />
<style
   type="text/css"
   id="style2">
	.st0{fill:#2EB7EB;}
	.st1{fill:#FFFFFF;stroke:#2EB7EB;stroke-width:3;stroke-miterlimit:10;}
	.st2{fill:#2EB7EB;stroke:#FFFFFF;stroke-miterlimit:10;}
	.st3{fill:#FFFFFF;stroke:#FFFFFF;stroke-miterlimit:10;}
</style>
<g
   id="g6">
	<path
   class="st0"
   d="M1577.79,422.85c-28.21-3.72-68.25,0.81-73.98,1.48c-13.21,2.06-24.21,4.69-32.46,6.96   c-29.45,8.1-41.8,16.53-45.11,18.86c-4.6,3.25-8.15,6.33-10.54,8.54l-2.92,2.43c-2.26-0.41,11.72-88.48,30.35-200.13   c-1.66-1.48-3.55-2.98-5.69-4.43c-7.16-4.83-14.26-7.09-19.6-8.22h-75.56c-1.7-0.2-3.29-0.18-4.74,0   c-16.28,1.96-24.92,23.73-26.24,27.19l-81.89,495.11c-0.65,2.78-0.45,4.98,0,6.64c2.36,8.8,14.81,14.9,30.98,15.18h63.39h0.79   c1.14,0.09,2.25,0.08,3.32,0c17.94-1.36,29.24-24.58,32.41-31.62l25.5-163.24c0.12-1.33,0.33-3.27,0.74-5.59   c0.3-1.68,14.91-50.81,62.92-67.66c15.1-5.3,28.58-5.68,44.02-6.12c13.42-0.38,20.13-0.57,28.88,2.11   c3.74,1.15,28.6,9.19,37.73,32.67c2.22,5.72,2.93,10.85,3.16,14.33l-30.14,206.35c-0.02,0.11-0.05,0.27-0.07,0.47   c-0.6,4.72,2.62,8.69,4.08,10.49c3.6,4.45,8.26,6.13,12.22,7.59c5.29,1.94,9.79,2.54,14.33,2.95c10.34,0.94,16.03,0.45,26.14,0.42   c18.1-0.05,19.28,1.17,29.09,0c7.67-0.91,12.48-1.49,18.55-4.22c5.17-2.33,14.28-7.58,20.66-18.13c3.43-5.67,4.56-11.22,6.32-18.97   c0.41-1.81,0.94-4.36,2.11-12.44c1.63-11.25,2.56-19.86,2.74-21.5c0.02-0.17,1.35-10.58,4-31.41c3.5-27.43,5.25-41.14,5.69-44.47   c5.73-43.32,8.59-64.98,11.38-82.62c0.44-2.8,1.64-10.31,2.53-20.45c0.23-2.68,1.42-16.22,1.05-23.4   c-0.87-17.14-12.22-29.9-24.24-43.42c-13.98-15.73-27.6-23.96-48.27-36.46c-5.13-3.1-11.35-6.62-19.81-9.7   C1591.26,424.67,1582.92,423.52,1577.79,422.85z"
   id="path4"
   style="fill:#f5f5f5;fill-opacity:1" />
</g>
<g
   id="g14">
	<path
   class="st1"
   d="M846.85,773.6l62.92-331.47c-0.41-2.33-2.05-9.54-9.68-15.75c-7.63-6.21-16.5-7.54-19.36-7.88H792"
   id="path8"
   style="fill:#ffffff;fill-opacity:0;stroke:#f5f5f5;stroke-opacity:1" />
	<path
   class="st1"
   d="M846.85,773.6c-3.63,8.53-10.63,20.52-23.93,23.85c-5.21,1.3-9.56,0.83-11.29,0.66   c-13.65-1.36-43-1.8-101.08-0.29"
   id="path10"
   style="stroke:#f5f5f5;stroke-opacity:1" />
	<path
   class="st1"
   d="M792,418.5c-11.98,0.54-25.26,3.11-33.48,11.16c-6.43,6.3-7.35,13.57-7.66,15.75   c-15.58,107.06-47.61,212.23-63.99,319.22c-0.61,4-2.44,15.23,5.65,23.85c5.27,5.61,13.02,8.28,19.63,9.63"
   id="path12"
   style="fill:#ffffff;fill-opacity:0;stroke:#f5f5f5;stroke-opacity:1" />
</g>
<path
   class="st0"
   d="M867.59,249.62c4.53-0.14,47.87-0.93,64.96,24.36c3.47,5.13,4.8,9.78,5.65,12.82  c7.55,27.14-10.85,51.81-13.42,55.14c-22.07,28.68-77.92,49.7-113.68,24.36c-22.97-16.28-32-47.68-21.18-73.73  C806.66,252.28,860.54,249.83,867.59,249.62z"
   id="path16"
   style="fill:#f5f5f5;fill-opacity:1" />
<path
   class="st0"
   d="M921.76,683.83c-2.33,1.13-20.34,20.21-43.35,48.18c-0.19,0.14-2.19,1.67-2.21,4.4  c-0.03,3.01,2.37,4.62,2.49,4.7c122.04,53.72,150.37,56.36,150.37,56.36c15.92,1.48,95.73,8.92,146.5-46.38  c7.94-8.65,41.96-45.7,34.83-90.99c-3.99-25.33-19.15-42.47-23.22-46.96c-19.63-21.7-43-26.83-50.86-28.18l-90.67-27  c-2.13-0.61-5.52-1.98-7.74-5.28c-4.5-6.7-0.94-16.58,1.66-21.13c6.34-11.09,23.19-19.4,39.46-21.72  c9.31-1.33,23.39,2.54,45.96,7.63c20.28,4.58,36.11,13.16,46.99,20.55c1.6,1.54,3.17,2.4,4.42,2.91c8.3,3.37,16.72-3.29,17.69-4.09  l33.45-37.57c0.48-1.17,1.15-3.12,1.38-5.58c1.31-13.64-12.44-25.26-17.97-29.94c-14.46-12.23-51.86-30.77-111.67-29.06  c-24.45,0.7-62.08,2.23-102,25.54c-15.16,8.85-31.76,18.81-45.33,39.63c-2.43,3.73-22.96,36.21-18.8,78.08  c0.58,5.79,0.88,8.87,2.21,13.21c7.96,25.99,34.5,37.88,58.33,48.14c12.4,5.34,36.11,15.55,58.6,19.08  c12.69,1.99,19.06,4.85,31.79,10.57c1.33,0.6,5.33,2.43,9.67,6.16c3.79,3.26,10.36,8.9,10.5,16.44c0.12,5.92-3.79,10.37-6.08,12.92  c-7.79,8.64-18.23,11.13-28.2,12.62c-14.64,2.19-33.63,4.83-59.15-1.47c-17.22-4.25-30.82-10.94-38.42-14.68  c-19.11-9.4-28.67-14.1-30.68-15.85c-0.99-0.86-3.24-2.99-6.63-3.52c-0.79-0.12-3.56-0.28-6.92,0.25c-0.07,0.01-0.15,0.02-0.27,0.04  C927.89,681.81,924.84,682.33,921.76,683.83z"
   id="path18"
   style="fill:#f5f5f5;fill-opacity:1" />
<g
   id="g26">
	<path
   class="st2"
   d="M582.93,794.61c17.91-0.05,19.07,1.14,28.77,0c7.58-0.89,12.35-1.46,18.35-4.13   c5.12-2.28,14.13-7.43,20.43-17.77c3.39-5.56,4.51-11,6.26-18.6c0.41-1.77,0.93-4.27,2.09-12.19c1.61-11.03,2.53-19.47,2.71-21.08   c0.02-0.17,1.33-10.37,3.96-30.79c3.46-26.89,5.19-40.33,5.63-43.6c5.67-42.47,8.5-63.7,11.26-80.99   c0.44-2.75,1.63-10.11,2.5-20.04c0.23-2.63,1.4-15.9,1.04-22.93c-0.86-16.8-12.09-29.31-23.98-42.56   c-13.83-15.42-27.3-23.49-47.75-35.74c-5.07-3.04-11.23-6.49-19.6-9.5c-10.24-3.69-18.5-4.81-23.56-5.48   c-27.9-3.65-67.52,0.79-73.18,1.45c-13.07,2.02-23.95,4.59-32.11,6.82c-29.13,7.94-41.35,16.21-44.62,18.49   c-4.55,3.19-8.06,6.2-10.43,8.37l-2.89,2.39c-2.24-0.4,11.59-86.74,30.02-196.18c-1.64-1.45-3.51-2.92-5.63-4.34   c-7.08-4.73-14.1-6.96-19.39-8.06h-74.75c-1.69-0.2-3.25-0.17-4.69,0c-16.11,1.92-24.65,23.26-25.96,26.65l-81,485.35   c-0.64,2.73-0.44,4.88,0,6.51c2.33,8.63,14.65,14.6,30.65,14.88h62.71h0.78c1.13,0.08,2.22,0.08,3.28,0L582.93,794.61z"
   id="path20"
   style="fill:#f5f5f5;fill-opacity:1" />
	<path
   class="st3"
   d="M547.7,672.5c-0.64,0.75-1.27,1.41-1.27,1.41c-8.02,8.35-19.22,9.41-25,10.68   c-12.31,2.7-25.39,3.86-52.23,2.17c-26.07-1.64-39.11-2.46-52.54-7.44c-12.41-4.6-27.46-10.18-35.03-24.48   c-2.35-4.45-6.01-13.58-2.81-32.85c5.21-31.49,26.9-79.26,69.36-93.28c15.76-5.2,34.34-5.74,43.55-6   c13.26-0.38,19.88-0.57,28.57,2.07c3.7,1.12,28.29,9.01,37.32,32.03c1.62,4.12,2.12,7.43,3.13,14.05c0,0,0.09,0.63,0.18,1.27   c2,14.6-1.33,41.19-1.33,41.19C556.19,640.38,557.03,661.49,547.7,672.5z"
   id="path22"
   style="fill:#2eb7eb;fill-opacity:1" />
	<path
   class="st2"
   d="M378.81,621.98"
   id="path24" />
</g>
<rect
   style="opacity:1;fill:#2eb7eb;fill-opacity:0;stroke:#2eb7eb;stroke-opacity:0"
   id="rect4512"
   width="86.684204"
   height="110.67618"
   x="764.33844"
   y="564.08258" /><path
   style="fill:#2eb7eb;stroke:#f5f5f5;stroke-width:1px;stroke-linecap:butt;stroke-linejoin:miter;stroke-opacity:1;fill-opacity:1"
   d="m 699.72307,792.23404 2.84255,1.35125 3.66395,1.48931 4.74223,1.27472 42.3473,-0.61078 38.21385,0.009 19.77336,0.93112 5.35984,0.24324 2.76694,-0.26698 2.78971,-0.47815 3.06966,-0.94818 2.38929,-0.99288 3.9798,-2.38194 3.18177,-2.54355 2.89856,-3.08211 1.68152,-2.25722 2.0892,-3.12054 2.23884,-3.99476 1.08305,-2.36083 0.59968,-1.33307 0.28249,-1.49623 4.14939,-21.72463 3.37799,-17.81087 3.62045,-19.11538 3.64268,-19.10789 1.93832,-10.06529 1.02299,-5.52198 0.9014,-4.77701 2.03379,-10.76956 2.15099,-11.33655 1.93132,-10.17287 37.85338,-199.28221 -0.88724,-3.14371 -0.75655,-1.766 -0.78332,-1.55141 -2.15636,-3.48277 -2.11566,-2.30856 -3.17402,-2.78542 -3.89519,-2.56387 -2.33957,-1.19173 -6.08021,-2.25057 -3.43333,-0.67566 -2.29597,-0.35946 -3.36356,0.0599 -84.59175,-5e-4 -1.29698,0.0602 -3.5321,0.24088 -5.03323,0.54808 -3.79411,0.70521 -2.63378,0.61082 -3.91056,1.13217 -1.8194,0.67484 -1.90093,0.80812 -1.41979,0.66832 -2.43073,1.34493 -1.11834,0.7025 -0.99538,0.67515 -1.10433,0.85027 -2.10539,1.8791 -2.11222,2.30351 -1.05751,1.42656 -0.90349,1.56105 -1.27504,2.77342 -0.79224,2.15476 -0.73669,3.15398 -0.6877,4.82871 -0.89578,5.69599 -0.61699,3.91953 -61.78696,303.19768 -1.02055,9.13069 0.54291,4.78729 0.31922,1.5882 0.43098,1.77191 0.55809,1.54011 1.06423,2.36711 0.58627,0.9685 0.77727,1.24466 0.7148,0.91706 0.67242,0.84261 1.82069,1.82057 1.67347,1.34407 2.90355,1.90227 z"
   id="path6486" /></svg>
