<svg xmlns="http://www.w3.org/2000/svg" width="40" height="40" fill="none" viewBox="0 0 40 40">
  <path fill="#F5F5F5" d="M17.59 2.742c.424-.922.104-2.055-.708-2.531-.813-.477-1.826-.117-2.25.797L8.167 15H2.222C.993 15 0 16.117 0 17.5S.993 20 2.222 20l3.604 16.21C6.32 38.438 8.097 40 10.14 40h19.72c2.042 0 3.82-1.563 4.313-3.79L37.778 20C39.007 20 40 18.883 40 17.5s-.993-2.5-2.222-2.5h-5.945L25.368 1.008c-.424-.914-1.43-1.274-2.25-.797-.82.476-1.132 1.61-.708 2.531L28.076 15H11.924L17.59 2.742ZM13.333 23.75v7.5c0 .688-.5 1.25-1.11 1.25-.612 0-1.112-.563-1.112-1.25v-7.5c0-.688.5-1.25 1.111-1.25s1.111.562 1.111 1.25ZM20 22.5c.611 0 1.111.562 1.111 1.25v7.5c0 .688-.5 1.25-1.111 1.25s-1.111-.563-1.111-1.25v-7.5c0-.688.5-1.25 1.111-1.25Zm8.889 1.25v7.5c0 .688-.5 1.25-1.111 1.25s-1.111-.563-1.111-1.25v-7.5c0-.688.5-1.25 1.11-1.25.612 0 1.112.562 1.112 1.25Z"/>
</svg>
