<svg xmlns="http://www.w3.org/2000/svg" width="298" height="150" fill="none" viewBox="0 0 298 150">
  <g clip-path="url(#a)">
    <path fill="#fff" d="M268.818 122.007H42.576a10.92 10.92 0 0 1-10.909-10.909V25.25a10.92 10.92 0 0 1 10.91-10.909h226.241a10.921 10.921 0 0 1 10.909 10.91v85.847a10.92 10.92 0 0 1-10.909 10.909Z"/>
    <path fill="#E6E6E6" d="M268.818 122.007H42.576a10.92 10.92 0 0 1-10.909-10.909V25.25a10.92 10.92 0 0 1 10.91-10.909h226.241a10.921 10.921 0 0 1 10.909 10.91v85.847a10.92 10.92 0 0 1-10.909 10.909ZM42.576 15.29a9.96 9.96 0 0 0-9.96 9.96v85.848a9.956 9.956 0 0 0 6.149 9.203c1.208.5 2.503.758 3.811.758h226.242a9.966 9.966 0 0 0 9.202-6.149c.5-1.208.758-2.503.758-3.812V78.729a63.44 63.44 0 0 0-63.439-63.44H42.576Z"/>
    <path fill="#fff" d="M24.675 140.283c.093-.636-.573-1.259-1.488-1.392-.914-.133-1.73.275-1.822.911-.093.635.573 1.259 1.488 1.392.914.133 1.73-.275 1.822-.911Z"/>
    <path fill="#3F3D56" d="M35.559 139.221c.093-.636-.573-1.259-1.488-1.392-.914-.133-1.73.275-1.822.911-.093.635.573 1.259 1.487 1.392.914.133 1.73-.275 1.823-.911Z"/>
    <path fill="#FF6584" d="M21.695 131.472c.092-.636-.574-1.259-1.488-1.392s-1.73.274-1.823.91c-.092.636.574 1.259 1.488 1.392s1.73-.274 1.823-.91Z"/>
    <path fill="#E6E6E6" d="M16.965 127.863c.005-.584-.32-1.06-.727-1.063-.406-.003-.739.468-.743 1.052-.005.583.321 1.059.727 1.062.406.003.74-.468.743-1.051Z"/>
    <path fill="#3F3D56" d="M15.361 121.14c.005-.584-.32-1.06-.727-1.063-.406-.003-.739.468-.743 1.052-.005.584.321 1.059.727 1.063.406.003.74-.468.743-1.052Z"/>
    <path fill="#E6E6E6" d="M27.833 132.971c.005-.583-.321-1.059-.727-1.062-.406-.003-.74.467-.744 1.051-.004.584.322 1.06.728 1.063.406.003.739-.468.743-1.052Z"/>
    <path fill="#FF6584" d="M22.574 135.597c.004-.583-.321-1.059-.727-1.062-.407-.003-.74.467-.744 1.051-.004.584.321 1.06.728 1.063.406.003.739-.468.743-1.052Z"/>
    <path fill="#3F3D56" d="M29.895 140.451c.005-.584-.321-1.06-.727-1.063-.406-.003-.74.468-.744 1.052-.004.584.322 1.059.728 1.062.406.004.739-.467.743-1.051Z"/>
    <path fill="#fff" d="M287.617 3.188c.201-.794-.561-1.672-1.702-1.961-1.142-.29-2.23.12-2.432.914-.201.794.561 1.672 1.703 1.961 1.141.29 2.23-.12 2.431-.914Z"/>
    <path fill="#3F3D56" d="M273.678 3.098c.201-.794-.561-1.672-1.702-1.961-1.142-.29-2.23.12-2.431.914-.202.794.56 1.672 1.702 1.961 1.141.29 2.23-.12 2.431-.914Z"/>
    <path fill="#FF6584" d="M290.233 14.753c.201-.794-.561-1.672-1.703-1.962-1.141-.289-2.23.12-2.431.914-.201.794.561 1.672 1.703 1.962 1.141.289 2.229-.12 2.431-.914Z"/>
    <path fill="#E6E6E6" d="M293.482 19.113c.083-.74-.267-1.385-.782-1.443-.514-.057-.998.496-1.081 1.235-.083.74.267 1.386.782 1.444.514.057.998-.496 1.081-1.236Z"/>
    <path fill="#3F3D56" d="M294.63 27.847c.083-.74-.267-1.386-.782-1.444-.514-.057-.999.496-1.081 1.236-.083.74.267 1.385.782 1.443.514.057.998-.496 1.081-1.235Z"/>
    <path fill="#E6E6E6" d="M280.378 11.202c.082-.74-.268-1.385-.782-1.443-.515-.057-.999.495-1.082 1.235-.082.74.268 1.386.782 1.443.515.058.999-.495 1.082-1.235Z"/>
    <path fill="#FF6584" d="M287.392 8.567c.083-.74-.267-1.386-.782-1.443-.514-.058-.998.495-1.081 1.235-.083.74.267 1.386.782 1.443.514.058.999-.495 1.081-1.235Z"/>
    <path fill="#3F3D56" d="M278.751 1.447c.082-.74-.268-1.385-.782-1.443-.515-.057-.999.496-1.082 1.235-.082.74.268 1.386.782 1.443.515.058.999-.495 1.082-1.235Z"/>
    <path fill="#F2F2F2" d="M122.16 66.427a34.72 34.72 0 0 1-8.908 23.27v.004a35.606 35.606 0 0 1-2.57 2.58 34.492 34.492 0 0 1-2.894 2.348c-.702.512-1.423.996-2.162 1.451a33.397 33.397 0 0 1-2.709 1.514 34.787 34.787 0 0 1-15.609 3.685c-2.619.003-5.23-.29-7.783-.873a33.064 33.064 0 0 1-3.491-.996 34.393 34.393 0 0 1-8.789-4.487 34.85 34.85 0 1 1 54.915-28.496Z"/>
    <path fill="#2EB7EB" d="M226.468 40.52h-60.236a1.897 1.897 0 0 1 0-3.794h60.236a1.899 1.899 0 0 1 1.342 3.239 1.899 1.899 0 0 1-1.342.555Z"/>
    <path fill="#E6E6E6" d="M226.468 66.132h-60.236a1.897 1.897 0 0 1 0-3.794h60.236a1.897 1.897 0 0 1 0 3.794Zm0 25.613h-60.236a1.897 1.897 0 0 1 0-3.795h60.236a1.899 1.899 0 0 1 1.342 3.239 1.899 1.899 0 0 1-1.342.556ZM75.874 148.344c-6.8-9.046-10.73-19.16-10.86-30.692a2.488 2.488 0 0 1 1.515-3.172l23.178-8.201a2.488 2.488 0 0 1 3.172 1.514l10.86 30.691a2.487 2.487 0 0 1-1.514 3.172l-23.179 8.202a2.488 2.488 0 0 1-3.172-1.514Z"/>
    <path fill="#fff" d="M74.372 138.444c-4.09-4.135-5.84-11.51-6.982-19.731a2.328 2.328 0 0 1 1.418-2.971l19.92-7.048a2.33 2.33 0 0 1 2.971 1.418l9.664 27.311a2.331 2.331 0 0 1-1.418 2.971l-12.34 4.366a10.38 10.38 0 0 1-13.233-6.316Z"/>
    <path fill="#2EB7EB" d="m91.966 124.825-15.517 5.539a1.01 1.01 0 0 1-.382.056.999.999 0 0 1-.882-.655.987.987 0 0 1 .6-1.264l15.516-5.538a.986.986 0 0 1 1.264.598.989.989 0 0 1-.599 1.264Zm-13.926-.786-3.414 1.219a.991.991 0 0 1-1.226-1.355.979.979 0 0 1 .562-.507l3.414-1.219a.992.992 0 0 1 1.066.267.998.998 0 0 1 .254.713.994.994 0 0 1-.324.684.982.982 0 0 1-.332.198Zm16.848 8.972-15.517 5.539a.988.988 0 0 1-.665-1.862l15.517-5.539a.989.989 0 0 1 .665 1.862Zm-1.461-4.093-15.517 5.539a.99.99 0 0 1-1.226-1.355.987.987 0 0 1 .561-.507l15.517-5.539a.992.992 0 0 1 1.067.267.989.989 0 0 1-.402 1.595Z"/>
    <path fill="#2F2E41" d="M79.337 50.66c.505 4.077 3.33 7.438 7.438 7.438a7.439 7.439 0 0 0 7.439-7.438c0-4.108-3.348-7.059-7.439-7.439-4.34-.403-8.087 2.204-7.438 7.439Zm13.914 50.111c-4.555.783-9.22.659-13.726-.365 2.139-1.18 8.627-.455 13.726.365Z"/>
    <path fill="#FFB6B6" d="m64.3 113.855 3.573-8.635 2.815 1.564-1.7 8.784a3.13 3.13 0 0 1-2.358 3.979 3.126 3.126 0 0 1-3.743-2.715 3.126 3.126 0 0 1 1.412-2.977Z"/>
    <path fill="#2EB7EB" d="M101.262 90.489v.004a338.338 338.338 0 0 1-.451 8.068 34.787 34.787 0 0 1-13.503 2.718c-2.619.003-5.23-.29-7.783-.873a33.064 33.064 0 0 1-3.491-.996c.16-.103.331-.184.512-.242 1.708-.579.02-1.105.033-1.655.053-2.011.608-4.425 1.324-6.74l-3.188 8.158-1.66 4.24s.057 3.662-.996 2.543c-1.057-1.12-.981 2.504-.981 2.504a3.3 3.3 0 0 0-.835.863.733.733 0 0 0-.1.508v.004a.63.63 0 0 0 .266.332c.716.484-.313 1.765-.769 2.272-.123.138-.204.218-.204.218l-4.377-.313v-.085c.019-.517.137-3.239.815-3.889.745-.716.38-1.85.38-1.85s1.944-1.722.64-3.121c-.522-.564-.29-3.908.351-8.234 1.4-9.543 4.753-23.867 6.204-23.663a8.05 8.05 0 0 1 5.744-6.137l4.728-1.3.845-3.334h6.659l1.157 2.191 4.852 2.191.062.029.152.066.057.18s-.005.005 0 .005l2.698 8.476c1.215 1.395 1.167 9.543.859 16.862Z"/>
    <path fill="#FFB6B6" d="m112.602 107.568-4.51-8.186 2.98-1.22 5.796 6.816a3.125 3.125 0 0 1 1.634 4.326 3.123 3.123 0 0 1-2.816 1.709 3.125 3.125 0 0 1-3.084-3.445Z"/>
    <path fill="#2EB7EB" d="M97.435 64.806c.802 1.441 8.138 5.148 6.866 8.87 0 0 6.892 21.56 7.788 21.419.896-.14 1.771 2.086 1.771 2.086s-.19 1.454.369.85c.559-.604.425.979.425.979s-.268 1.397.442 1.018c.709-.38-.224 2.294-.224 2.294l-4.265 2.008-.81-1.206s-1.732-.33-.917-.591c.815-.261-.767-1.141-.767-1.141s-1.654-1.124-1.423-2.986c.23-1.862-4.293-5.522-4.293-5.522-3.11-6.14-4.81-12.443-4.805-18.945l-.157-9.133Z"/>
    <path fill="#FFB6B6" d="M87.598 58.54a6.596 6.596 0 1 0 0-13.192 6.596 6.596 0 0 0 0 13.192Z"/>
    <path fill="#2F2E41" d="M80.767 52.662c.21 1.434 1.43 3.434 1.145 3.434-.286 0-2.32-5.91-.286-6.295 1.475-.279 1.805-.034 3.184-.632l-.195.183c.913.664 2.183.255 3.225-.177 1.044-.43 2.311-.838 3.227-.177.575.414.818 1.135 1.176 1.748.357.615 1.018 1.195 1.7 1.007a1.346 1.346 0 0 0 .858-1.33c-.003-.567-.741-1.106-.493-1.614.737-1.506.074-2.533-1.53-3.242a335.69 335.69 0 0 1-1.751-.272 4.966 4.966 0 0 1 1.099-1.104 2.511 2.511 0 0 0-.887-1.136 2.785 2.785 0 0 0-1.585-.229l-3.62.19a6.384 6.384 0 0 0-2.615.509c-.995.512-1.647 1.51-2.122 2.526-1.065 2.283-.896 4.12-.53 6.611Z"/>
    <path fill="#E6E6E6" d="M245.771 48.336h-99.198a.411.411 0 1 1 0-.824h99.198a.411.411 0 1 1 0 .824Zm0 25.536h-99.198a.411.411 0 1 1 0-.824h99.198a.411.411 0 1 1 0 .824Zm0 25.535h-99.198a.411.411 0 0 1 0-.824h99.198a.411.411 0 0 1 0 .824Z"/>
    <path fill="#E6E6E6" d="M260.536 97.774a15.24 15.24 0 0 1-9.904-3.657c-.92-.788-1.901-2.158-2.915-4.072a9.313 9.313 0 0 1-.296-8.04 10.654 10.654 0 0 1-1.764 1.448l-.323.215-.019-.387a15.72 15.72 0 0 1-.018-.746c0-1.431 1.083-2.884.583-4.207-2.104-5.578-8.781-11.121.895-19.753.895-.799-.3-2.395-.3-3.604 0-11.84 16.734-32.324 21.477-21.472 5.849 13.382 15.926 11.95 20.39 14.715l.065.195-.191.077c-.977.411-2.006.685-3.058.814 1.122.229 2.266.324 3.41.285l.178-.006.043.173c.425 1.707.64 3.46.64 5.22l-.001.19a9.516 9.516 0 0 0 3.142 7.091 15.274 15.274 0 0 1 4.983 11.27c0 2.511-1.706 5.806-3.137 8.128a4.602 4.602 0 0 1-5.315 1.979 4.487 4.487 0 0 1-1.681-.988 14.839 14.839 0 0 0 2.618 3.706l.195.2-.243.142a15.228 15.228 0 0 1-7.676 2.073h-.158a14.863 14.863 0 0 0-10.664 4.352 15.346 15.346 0 0 1-10.956 4.66Z"/>
    <path fill="#3F3D56" d="M255.293 121.907a.274.274 0 0 1-.271-.235 91.841 91.841 0 0 1-.128-19.238c.946-10.096 3.984-24.637 13.084-36.58a.276.276 0 0 1 .288-.098.276.276 0 0 1 .195.335.268.268 0 0 1-.047.096c-9.021 11.839-12.035 26.273-12.974 36.298a91.165 91.165 0 0 0 .125 19.11.269.269 0 0 1-.065.218.269.269 0 0 1-.207.094Z"/>
    <path fill="#3F3D56" d="M262.719 82.7a.273.273 0 0 1-.161-.496 37.787 37.787 0 0 1 8.338-4.245c4.601-1.684 11.597-3.211 18.799-.919a.283.283 0 0 1 .161.135.283.283 0 0 1 .017.21.277.277 0 0 1-.135.16.277.277 0 0 1-.209.017c-7.055-2.245-13.924-.743-18.444.912a37.148 37.148 0 0 0-8.205 4.173.273.273 0 0 1-.161.053Zm-12.543-31.24a.273.273 0 0 1 .17-.274.274.274 0 0 1 .313.077 37.775 37.775 0 0 1 4.834 8.011c2.011 4.468 4.038 11.336 2.271 18.684a.27.27 0 0 1-.224.207.271.271 0 0 1-.277-.128.278.278 0 0 1-.032-.207c1.731-7.198-.261-13.941-2.238-18.33a37.134 37.134 0 0 0-4.753-7.884.274.274 0 0 1-.064-.156Z"/>
    <path fill="#E6E6E6" d="M26.06 92.292a14.865 14.865 0 0 0-10.663-4.353h-.158a15.227 15.227 0 0 1-7.676-2.072l-.243-.142.196-.2a14.842 14.842 0 0 0 2.617-3.707 4.488 4.488 0 0 1-3.622 1.17 4.596 4.596 0 0 1-3.374-2.16C1.706 78.506 0 75.21 0 72.7a15.274 15.274 0 0 1 4.983-11.27 9.512 9.512 0 0 0 3.142-7.093v-.19c-.001-1.76.214-3.512.64-5.22l.043-.172.177.006a14.58 14.58 0 0 0 3.41-.285 11.513 11.513 0 0 1-3.058-.814l-.191-.077.065-.196c4.464-2.764 14.541-1.332 20.39-14.715 4.743-10.851 21.477 9.633 21.477 21.473 0 1.208-1.195 2.805-.3 3.603 9.675 8.633 3 14.176.895 19.753-.5 1.324.583 2.776.583 4.208 0 .243-.006.494-.019.745l-.018.387-.323-.214a10.688 10.688 0 0 1-1.764-1.448 9.312 9.312 0 0 1-.296 8.04c-1.014 1.914-1.995 3.284-2.915 4.072a15.224 15.224 0 0 1-20.86-1.002Z"/>
    <path fill="#3F3D56" d="M42.26 121.084a.275.275 0 0 0 .27-.235c.717-6.391.76-12.839.128-19.239-.946-10.095-3.983-24.636-13.083-36.579a.276.276 0 0 0-.384-.052.273.273 0 0 0-.052.384c9.021 11.84 12.034 26.274 12.974 36.298a91.137 91.137 0 0 1-.125 19.11.279.279 0 0 0 .065.219.276.276 0 0 0 .207.094Z"/>
    <path fill="#3F3D56" d="M34.834 81.876a.274.274 0 0 0 .161-.495 37.775 37.775 0 0 0-8.338-4.245c-4.601-1.684-11.597-3.211-18.8-.92a.274.274 0 1 0 .167.523c7.055-2.245 13.924-.743 18.444.912a37.147 37.147 0 0 1 8.205 4.173.273.273 0 0 0 .161.052Zm12.543-31.24a.274.274 0 0 0-.483-.196 37.777 37.777 0 0 0-4.834 8.011c-2.012 4.467-4.038 11.335-2.27 18.684a.273.273 0 0 0 .33.203.273.273 0 0 0 .202-.331c-1.731-7.198.261-13.942 2.237-18.33a37.153 37.153 0 0 1 4.754-7.884.273.273 0 0 0 .064-.157Z"/>
  </g>
  <defs>
    <clipPath id="a">
      <path fill="#fff" d="M0 0h297.553v150H0z"/>
    </clipPath>
  </defs>
</svg>
