<svg xmlns="http://www.w3.org/2000/svg" width="240" height="240" fill="none" viewBox="0 0 240 240">
  <path fill="#2EB7EB" d="M240 101.25v7.5c0 6.213-4.477 11.25-10 11.25h-3.333l-10.881 85.682C214.379 216.767 205.94 225 195.987 225H44.013c-9.953 0-18.392-8.233-19.8-19.318L13.333 120H10c-5.523 0-10-5.037-10-11.25v-7.5C0 95.037 4.477 90 10 90h28.059L82.55 21.178c4.332-6.7 12.67-8.181 18.626-3.309 5.955 4.873 7.272 14.254 2.941 20.954L71.032 90h97.936l-33.085-51.178c-4.331-6.699-3.014-16.08 2.942-20.953 5.954-4.873 14.294-3.392 18.625 3.308L201.941 90H230c5.523 0 10 5.037 10 11.25Zm-110 82.5v-52.5c0-6.213-4.477-11.25-10-11.25s-10 5.037-10 11.25v52.5c0 6.213 4.477 11.25 10 11.25s10-5.037 10-11.25Zm46.667 0v-52.5c0-6.213-4.477-11.25-10-11.25s-10 5.037-10 11.25v52.5c0 6.213 4.477 11.25 10 11.25s10-5.037 10-11.25Zm-93.334 0v-52.5c0-6.213-4.477-11.25-10-11.25s-10 5.037-10 11.25v52.5c0 6.213 4.477 11.25 10 11.25s10-5.037 10-11.25Z"/>
</svg>
